STARTFONT 2.1
FONT -Misc-Fixed-Medium-O-SemiCondensed--13-120-75-75-C-60-ISO10646-1
SIZE 13 75 75
FONTBOUNDINGBOX 6 13 0 -2

STARTPROPERTIES 24
FONTNAME_REGISTRY ""
FOUNDRY "Misc"
FAMILY_NAME "Fixed"
WEIGHT_NAME "Medium"
SLANT "O"
SETWIDTH_NAME "SemiCondensed"
ADD_STYLE_NAME ""
PIXEL_SIZE 13
POINT_SIZE 120
RESOLUTION_X 75
RESOLUTION_Y 75
SPACING "C"
AVERAGE_WIDTH 60
CHARSET_REGISTRY "ISO10646"
CHARSET_ENCODING "1"
COPYRIGHT "Public domain font.  Share and enjoy."
_XMBDFED_INFO "Edited with xmbdfed 4.3."
CAP_HEIGHT 9
X_HEIGHT 6
WEIGHT 10
QUAD_WIDTH 6
DEFAULT_CHAR 0
FONT_DESCENT 2
FONT_ASCENT 11
ENDPROPERTIES

CHARS 770

STARTCHAR char0
ENCODING 0
SWIDTH 480 0
DWIDTH 6 0
BBX 6 13 0 -2
BITMAP
00
00
54
00
44
00
44
00
88
00
A8
00
00
ENDCHAR

STARTCHAR space
ENCODING 32
SWIDTH 480 0
DWIDTH 6 0
BBX 6 13 0 -2
BITMAP
00
00
00
00
00
00
00
00
00
00
00
00
00
ENDCHAR

STARTCHAR exclam
ENCODING 33
SWIDTH 480 0
DWIDTH 6 0
BBX 6 13 0 -2
BITMAP
00
00
10
10
10
10
20
20
20
00
20
00
00
ENDCHAR

STARTCHAR quotedbl
ENCODING 34
SWIDTH 480 0
DWIDTH 6 0
BBX 6 13 0 -2
BITMAP
00
00
14
14
28
00
00
00
00
00
00
00
00
ENDCHAR

STARTCHAR numbersign
ENCODING 35
SWIDTH 480 0
DWIDTH 6 0
BBX 6 13 0 -2
BITMAP
00
00
00
28
28
7C
28
F8
50
50
00
00
00
ENDCHAR

STARTCHAR dollar
ENCODING 36
SWIDTH 480 0
DWIDTH 6 0
BBX 6 13 0 -2
BITMAP
00
00
10
3C
50
50
38
24
28
F0
20
00
00
ENDCHAR

STARTCHAR percent
ENCODING 37
SWIDTH 480 0
DWIDTH 6 0
BBX 6 13 0 -2
BITMAP
00
00
24
54
28
08
10
20
50
A8
90
00
00
ENDCHAR

STARTCHAR ampersand
ENCODING 38
SWIDTH 480 0
DWIDTH 6 0
BBX 6 13 0 -2
BITMAP
00
00
00
10
28
28
30
50
94
98
68
00
00
ENDCHAR

STARTCHAR quotesingle
ENCODING 39
SWIDTH 480 0
DWIDTH 6 0
BBX 6 13 0 -2
BITMAP
00
00
08
08
10
00
00
00
00
00
00
00
00
ENDCHAR

STARTCHAR parenleft
ENCODING 40
SWIDTH 480 0
DWIDTH 6 0
BBX 6 13 0 -2
BITMAP
00
08
10
20
20
40
40
40
40
20
20
10
00
ENDCHAR

STARTCHAR parenright
ENCODING 41
SWIDTH 480 0
DWIDTH 6 0
BBX 6 13 0 -2
BITMAP
00
20
10
10
08
08
08
08
10
10
20
40
00
ENDCHAR

STARTCHAR asterisk
ENCODING 42
SWIDTH 480 0
DWIDTH 6 0
BBX 6 13 0 -2
BITMAP
00
00
00
10
54
7C
38
7C
A8
20
00
00
00
ENDCHAR

STARTCHAR plus
ENCODING 43
SWIDTH 480 0
DWIDTH 6 0
BBX 6 13 0 -2
BITMAP
00
00
00
00
10
10
78
20
20
00
00
00
00
ENDCHAR

STARTCHAR comma
ENCODING 44
SWIDTH 480 0
DWIDTH 6 0
BBX 6 13 0 -2
BITMAP
00
00
00
00
00
00
00
00
00
30
20
40
00
ENDCHAR

STARTCHAR hyphen
ENCODING 45
SWIDTH 480 0
DWIDTH 6 0
BBX 6 13 0 -2
BITMAP
00
00
00
00
00
00
78
00
00
00
00
00
00
ENDCHAR

STARTCHAR period
ENCODING 46
SWIDTH 480 0
DWIDTH 6 0
BBX 6 13 0 -2
BITMAP
00
00
00
00
00
00
00
00
00
20
70
20
00
ENDCHAR

STARTCHAR slash
ENCODING 47
SWIDTH 480 0
DWIDTH 6 0
BBX 6 13 0 -2
BITMAP
00
00
04
04
08
10
10
20
40
80
80
00
00
ENDCHAR

STARTCHAR zero
ENCODING 48
SWIDTH 480 0
DWIDTH 6 0
BBX 6 13 0 -2
BITMAP
00
00
10
28
44
44
44
88
88
50
20
00
00
ENDCHAR

STARTCHAR one
ENCODING 49
SWIDTH 480 0
DWIDTH 6 0
BBX 6 13 0 -2
BITMAP
00
00
10
30
50
10
10
20
20
20
F8
00
00
ENDCHAR

STARTCHAR two
ENCODING 50
SWIDTH 480 0
DWIDTH 6 0
BBX 6 13 0 -2
BITMAP
00
00
38
44
44
08
10
20
40
80
F8
00
00
ENDCHAR

STARTCHAR three
ENCODING 51
SWIDTH 480 0
DWIDTH 6 0
BBX 6 13 0 -2
BITMAP
00
00
7C
04
08
10
38
04
08
88
70
00
00
ENDCHAR

STARTCHAR four
ENCODING 52
SWIDTH 480 0
DWIDTH 6 0
BBX 6 13 0 -2
BITMAP
00
00
08
08
18
28
28
48
F8
10
10
00
00
ENDCHAR

STARTCHAR five
ENCODING 53
SWIDTH 480 0
DWIDTH 6 0
BBX 6 13 0 -2
BITMAP
00
00
7C
40
40
58
64
04
08
88
70
00
00
ENDCHAR

STARTCHAR six
ENCODING 54
SWIDTH 480 0
DWIDTH 6 0
BBX 6 13 0 -2
BITMAP
00
00
38
44
40
40
70
88
88
88
70
00
00
ENDCHAR

STARTCHAR seven
ENCODING 55
SWIDTH 480 0
DWIDTH 6 0
BBX 6 13 0 -2
BITMAP
00
00
7C
04
08
08
10
20
20
40
40
00
00
ENDCHAR

STARTCHAR eight
ENCODING 56
SWIDTH 480 0
DWIDTH 6 0
BBX 6 13 0 -2
BITMAP
00
00
38
44
44
44
78
88
88
88
70
00
00
ENDCHAR

STARTCHAR nine
ENCODING 57
SWIDTH 480 0
DWIDTH 6 0
BBX 6 13 0 -2
BITMAP
00
00
38
44
44
44
38
08
08
88
70
00
00
ENDCHAR

STARTCHAR colon
ENCODING 58
SWIDTH 480 0
DWIDTH 6 0
BBX 6 13 0 -2
BITMAP
00
00
00
00
10
38
10
00
00
20
70
20
00
ENDCHAR

STARTCHAR semicolon
ENCODING 59
SWIDTH 480 0
DWIDTH 6 0
BBX 6 13 0 -2
BITMAP
00
00
00
00
10
38
10
00
00
30
20
40
00
ENDCHAR

STARTCHAR less
ENCODING 60
SWIDTH 480 0
DWIDTH 6 0
BBX 6 13 0 -2
BITMAP
00
00
04
08
10
20
40
20
20
10
08
00
00
ENDCHAR

STARTCHAR equal
ENCODING 61
SWIDTH 480 0
DWIDTH 6 0
BBX 6 13 0 -2
BITMAP
00
00
00
00
00
7C
00
00
F8
00
00
00
00
ENDCHAR

STARTCHAR greater
ENCODING 62
SWIDTH 480 0
DWIDTH 6 0
BBX 6 13 0 -2
BITMAP
00
00
40
20
10
08
04
08
30
40
80
00
00
ENDCHAR

STARTCHAR question
ENCODING 63
SWIDTH 480 0
DWIDTH 6 0
BBX 6 13 0 -2
BITMAP
00
00
38
44
44
04
08
10
20
00
20
00
00
ENDCHAR

STARTCHAR at
ENCODING 64
SWIDTH 480 0
DWIDTH 6 0
BBX 6 13 0 -2
BITMAP
00
00
38
44
44
58
A8
A8
90
80
78
00
00
ENDCHAR

STARTCHAR A
ENCODING 65
SWIDTH 480 0
DWIDTH 6 0
BBX 6 13 0 -2
BITMAP
00
00
10
28
44
44
44
F8
88
88
88
00
00
ENDCHAR

STARTCHAR B
ENCODING 66
SWIDTH 480 0
DWIDTH 6 0
BBX 6 13 0 -2
BITMAP
00
00
78
24
24
24
38
48
48
48
F0
00
00
ENDCHAR

STARTCHAR C
ENCODING 67
SWIDTH 480 0
DWIDTH 6 0
BBX 6 13 0 -2
BITMAP
00
00
38
44
40
40
40
80
80
88
70
00
00
ENDCHAR

STARTCHAR D
ENCODING 68
SWIDTH 480 0
DWIDTH 6 0
BBX 6 13 0 -2
BITMAP
00
00
78
24
24
24
24
48
48
48
F0
00
00
ENDCHAR

STARTCHAR E
ENCODING 69
SWIDTH 480 0
DWIDTH 6 0
BBX 6 13 0 -2
BITMAP
00
00
7C
40
40
40
78
80
80
80
F8
00
00
ENDCHAR

STARTCHAR F
ENCODING 70
SWIDTH 480 0
DWIDTH 6 0
BBX 6 13 0 -2
BITMAP
00
00
7C
40
40
40
78
80
80
80
80
00
00
ENDCHAR

STARTCHAR G
ENCODING 71
SWIDTH 480 0
DWIDTH 6 0
BBX 6 13 0 -2
BITMAP
00
00
38
44
40
40
40
98
88
88
70
00
00
ENDCHAR

STARTCHAR H
ENCODING 72
SWIDTH 480 0
DWIDTH 6 0
BBX 6 13 0 -2
BITMAP
00
00
44
44
44
44
7C
88
88
88
88
00
00
ENDCHAR

STARTCHAR I
ENCODING 73
SWIDTH 480 0
DWIDTH 6 0
BBX 6 13 0 -2
BITMAP
00
00
38
10
10
10
10
20
20
20
70
00
00
ENDCHAR

STARTCHAR J
ENCODING 74
SWIDTH 480 0
DWIDTH 6 0
BBX 6 13 0 -2
BITMAP
00
00
1C
08
08
08
08
10
10
90
60
00
00
ENDCHAR

STARTCHAR K
ENCODING 75
SWIDTH 480 0
DWIDTH 6 0
BBX 6 13 0 -2
BITMAP
00
00
44
44
48
50
60
A0
90
88
88
00
00
ENDCHAR

STARTCHAR L
ENCODING 76
SWIDTH 480 0
DWIDTH 6 0
BBX 6 13 0 -2
BITMAP
00
00
40
40
40
40
40
80
80
80
F8
00
00
ENDCHAR

STARTCHAR M
ENCODING 77
SWIDTH 480 0
DWIDTH 6 0
BBX 6 13 0 -2
BITMAP
00
00
44
44
6C
54
54
88
88
88
88
00
00
ENDCHAR

STARTCHAR N
ENCODING 78
SWIDTH 480 0
DWIDTH 6 0
BBX 6 13 0 -2
BITMAP
00
00
44
64
64
54
54
98
88
88
88
00
00
ENDCHAR

STARTCHAR O
ENCODING 79
SWIDTH 480 0
DWIDTH 6 0
BBX 6 13 0 -2
BITMAP
00
00
38
44
44
44
44
88
88
88
70
00
00
ENDCHAR

STARTCHAR P
ENCODING 80
SWIDTH 480 0
DWIDTH 6 0
BBX 6 13 0 -2
BITMAP
00
00
78
44
44
44
78
80
80
80
80
00
00
ENDCHAR

STARTCHAR Q
ENCODING 81
SWIDTH 480 0
DWIDTH 6 0
BBX 6 13 0 -2
BITMAP
00
00
38
44
44
44
44
88
88
A8
70
08
00
ENDCHAR

STARTCHAR R
ENCODING 82
SWIDTH 480 0
DWIDTH 6 0
BBX 6 13 0 -2
BITMAP
00
00
78
44
44
44
78
90
90
88
88
00
00
ENDCHAR

STARTCHAR S
ENCODING 83
SWIDTH 480 0
DWIDTH 6 0
BBX 6 13 0 -2
BITMAP
00
00
38
44
40
40
30
08
08
88
70
00
00
ENDCHAR

STARTCHAR T
ENCODING 84
SWIDTH 480 0
DWIDTH 6 0
BBX 6 13 0 -2
BITMAP
00
00
7C
10
10
10
10
20
20
20
20
00
00
ENDCHAR

STARTCHAR U
ENCODING 85
SWIDTH 480 0
DWIDTH 6 0
BBX 6 13 0 -2
BITMAP
00
00
44
44
44
44
44
88
88
88
70
00
00
ENDCHAR

STARTCHAR V
ENCODING 86
SWIDTH 480 0
DWIDTH 6 0
BBX 6 13 0 -2
BITMAP
00
00
44
44
44
44
48
48
50
50
20
00
00
ENDCHAR

STARTCHAR W
ENCODING 87
SWIDTH 480 0
DWIDTH 6 0
BBX 6 13 0 -2
BITMAP
00
00
44
44
44
44
A8
A8
A8
A8
50
00
00
ENDCHAR

STARTCHAR X
ENCODING 88
SWIDTH 480 0
DWIDTH 6 0
BBX 6 13 0 -2
BITMAP
00
00
44
44
28
28
10
30
48
88
88
00
00
ENDCHAR

STARTCHAR Y
ENCODING 89
SWIDTH 480 0
DWIDTH 6 0
BBX 6 13 0 -2
BITMAP
00
00
44
44
28
28
10
10
20
20
20
00
00
ENDCHAR

STARTCHAR Z
ENCODING 90
SWIDTH 480 0
DWIDTH 6 0
BBX 6 13 0 -2
BITMAP
00
00
7C
04
08
08
10
20
40
80
F8
00
00
ENDCHAR

STARTCHAR bracketleft
ENCODING 91
SWIDTH 480 0
DWIDTH 6 0
BBX 6 13 0 -2
BITMAP
00
38
20
20
20
40
40
40
80
80
80
E0
00
ENDCHAR

STARTCHAR backslash
ENCODING 92
SWIDTH 480 0
DWIDTH 6 0
BBX 6 13 0 -2
BITMAP
00
00
40
40
20
20
20
10
10
08
08
00
00
ENDCHAR

STARTCHAR bracketright
ENCODING 93
SWIDTH 480 0
DWIDTH 6 0
BBX 6 13 0 -2
BITMAP
00
38
08
08
08
10
10
10
20
20
20
E0
00
ENDCHAR

STARTCHAR asciicircum
ENCODING 94
SWIDTH 480 0
DWIDTH 6 0
BBX 6 13 0 -2
BITMAP
00
00
10
28
44
00
00
00
00
00
00
00
00
ENDCHAR

STARTCHAR underscore
ENCODING 95
SWIDTH 480 0
DWIDTH 6 0
BBX 6 13 0 -2
BITMAP
00
00
00
00
00
00
00
00
00
00
00
F8
00
ENDCHAR

STARTCHAR grave
ENCODING 96
SWIDTH 480 0
DWIDTH 6 0
BBX 6 13 0 -2
BITMAP
00
10
08
00
00
00
00
00
00
00
00
00
00
ENDCHAR

STARTCHAR a
ENCODING 97
SWIDTH 480 0
DWIDTH 6 0
BBX 6 13 0 -2
BITMAP
00
00
00
00
00
38
04
7C
88
98
68
00
00
ENDCHAR

STARTCHAR b
ENCODING 98
SWIDTH 480 0
DWIDTH 6 0
BBX 6 13 0 -2
BITMAP
00
00
40
40
40
78
44
88
88
88
F0
00
00
ENDCHAR

STARTCHAR c
ENCODING 99
SWIDTH 480 0
DWIDTH 6 0
BBX 6 13 0 -2
BITMAP
00
00
00
00
00
38
44
80
80
88
70
00
00
ENDCHAR

STARTCHAR d
ENCODING 100
SWIDTH 480 0
DWIDTH 6 0
BBX 6 13 0 -2
BITMAP
00
00
04
04
04
3C
44
88
88
88
78
00
00
ENDCHAR

STARTCHAR e
ENCODING 101
SWIDTH 480 0
DWIDTH 6 0
BBX 6 13 0 -2
BITMAP
00
00
00
00
00
38
44
7C
80
88
70
00
00
ENDCHAR

STARTCHAR f
ENCODING 102
SWIDTH 480 0
DWIDTH 6 0
BBX 6 13 0 -2
BITMAP
00
00
18
24
20
20
78
20
40
40
40
00
00
ENDCHAR

STARTCHAR g
ENCODING 103
SWIDTH 480 0
DWIDTH 6 0
BBX 6 13 0 -2
BITMAP
00
00
00
00
00
38
44
44
88
78
08
88
70
ENDCHAR

STARTCHAR h
ENCODING 104
SWIDTH 480 0
DWIDTH 6 0
BBX 6 13 0 -2
BITMAP
00
00
20
20
20
58
64
44
88
88
88
00
00
ENDCHAR

STARTCHAR i
ENCODING 105
SWIDTH 480 0
DWIDTH 6 0
BBX 6 13 0 -2
BITMAP
00
00
00
10
00
30
10
10
20
20
70
00
00
ENDCHAR

STARTCHAR j
ENCODING 106
SWIDTH 480 0
DWIDTH 6 0
BBX 6 13 0 -2
BITMAP
00
00
00
08
00
18
08
08
10
10
90
90
60
ENDCHAR

STARTCHAR k
ENCODING 107
SWIDTH 480 0
DWIDTH 6 0
BBX 6 13 0 -2
BITMAP
00
00
20
20
20
48
50
60
A0
90
88
00
00
ENDCHAR

STARTCHAR l
ENCODING 108
SWIDTH 480 0
DWIDTH 6 0
BBX 6 13 0 -2
BITMAP
00
00
18
08
08
10
10
10
20
20
70
00
00
ENDCHAR

STARTCHAR m
ENCODING 109
SWIDTH 480 0
DWIDTH 6 0
BBX 6 13 0 -2
BITMAP
00
00
00
00
00
68
54
54
A8
A8
88
00
00
ENDCHAR

STARTCHAR n
ENCODING 110
SWIDTH 480 0
DWIDTH 6 0
BBX 6 13 0 -2
BITMAP
00
00
00
00
00
58
64
44
88
88
88
00
00
ENDCHAR

STARTCHAR o
ENCODING 111
SWIDTH 480 0
DWIDTH 6 0
BBX 6 13 0 -2
BITMAP
00
00
00
00
00
38
44
44
88
88
70
00
00
ENDCHAR

STARTCHAR p
ENCODING 112
SWIDTH 480 0
DWIDTH 6 0
BBX 6 13 0 -2
BITMAP
00
00
00
00
00
78
44
44
88
F0
80
80
80
ENDCHAR

STARTCHAR q
ENCODING 113
SWIDTH 480 0
DWIDTH 6 0
BBX 6 13 0 -2
BITMAP
00
00
00
00
00
3C
44
84
88
78
08
10
10
ENDCHAR

STARTCHAR r
ENCODING 114
SWIDTH 480 0
DWIDTH 6 0
BBX 6 13 0 -2
BITMAP
00
00
00
00
00
58
64
40
80
80
80
00
00
ENDCHAR

STARTCHAR s
ENCODING 115
SWIDTH 480 0
DWIDTH 6 0
BBX 6 13 0 -2
BITMAP
00
00
00
00
00
38
44
20
10
88
70
00
00
ENDCHAR

STARTCHAR t
ENCODING 116
SWIDTH 480 0
DWIDTH 6 0
BBX 6 13 0 -2
BITMAP
00
00
00
10
10
78
20
20
40
48
30
00
00
ENDCHAR

STARTCHAR u
ENCODING 117
SWIDTH 480 0
DWIDTH 6 0
BBX 6 13 0 -2
BITMAP
00
00
00
00
00
44
44
88
88
98
68
00
00
ENDCHAR

STARTCHAR v
ENCODING 118
SWIDTH 480 0
DWIDTH 6 0
BBX 6 13 0 -2
BITMAP
00
00
00
00
00
44
44
44
48
50
20
00
00
ENDCHAR

STARTCHAR w
ENCODING 119
SWIDTH 480 0
DWIDTH 6 0
BBX 6 13 0 -2
BITMAP
00
00
00
00
00
44
44
54
A8
A8
50
00
00
ENDCHAR

STARTCHAR x
ENCODING 120
SWIDTH 480 0
DWIDTH 6 0
BBX 6 13 0 -2
BITMAP
00
00
00
00
00
44
28
10
20
50
88
00
00
ENDCHAR

STARTCHAR y
ENCODING 121
SWIDTH 480 0
DWIDTH 6 0
BBX 6 13 0 -2
BITMAP
00
00
00
00
00
44
44
88
98
68
08
90
60
ENDCHAR

STARTCHAR z
ENCODING 122
SWIDTH 480 0
DWIDTH 6 0
BBX 6 13 0 -2
BITMAP
00
00
00
00
00
7C
08
10
60
80
F8
00
00
ENDCHAR

STARTCHAR braceleft
ENCODING 123
SWIDTH 480 0
DWIDTH 6 0
BBX 6 13 0 -2
BITMAP
00
18
20
20
20
20
C0
20
40
40
40
30
00
ENDCHAR

STARTCHAR bar
ENCODING 124
SWIDTH 480 0
DWIDTH 6 0
BBX 6 13 0 -2
BITMAP
00
00
10
10
10
10
10
20
20
20
20
00
00
ENDCHAR

STARTCHAR braceright
ENCODING 125
SWIDTH 480 0
DWIDTH 6 0
BBX 6 13 0 -2
BITMAP
00
60
10
10
10
10
0C
10
20
20
20
C0
00
ENDCHAR

STARTCHAR asciitilde
ENCODING 126
SWIDTH 480 0
DWIDTH 6 0
BBX 6 13 0 -2
BITMAP
00
00
24
54
48
00
00
00
00
00
00
00
00
ENDCHAR

STARTCHAR space
ENCODING 160
SWIDTH 480 0
DWIDTH 6 0
BBX 6 13 0 -2
BITMAP
00
00
00
00
00
00
00
00
00
00
00
00
00
ENDCHAR

STARTCHAR exclamdown
ENCODING 161
SWIDTH 480 0
DWIDTH 6 0
BBX 6 13 0 -2
BITMAP
00
00
10
00
10
10
10
20
20
20
20
00
00
ENDCHAR

STARTCHAR cent
ENCODING 162
SWIDTH 480 0
DWIDTH 6 0
BBX 6 13 0 -2
BITMAP
00
00
10
38
54
50
A0
A8
70
20
00
00
00
ENDCHAR

STARTCHAR sterling
ENCODING 163
SWIDTH 480 0
DWIDTH 6 0
BBX 6 13 0 -2
BITMAP
00
00
18
24
20
20
70
20
40
48
B0
00
00
ENDCHAR

STARTCHAR currency
ENCODING 164
SWIDTH 480 0
DWIDTH 6 0
BBX 6 13 0 -2
BITMAP
00
00
00
00
44
38
28
50
70
88
00
00
00
ENDCHAR

STARTCHAR yen
ENCODING 165
SWIDTH 480 0
DWIDTH 6 0
BBX 6 13 0 -2
BITMAP
00
00
44
44
28
28
7C
20
F8
20
20
00
00
ENDCHAR

STARTCHAR brokenbar
ENCODING 166
SWIDTH 480 0
DWIDTH 6 0
BBX 6 13 0 -2
BITMAP
00
00
10
10
10
10
00
20
20
20
20
00
00
ENDCHAR

STARTCHAR section
ENCODING 167
SWIDTH 480 0
DWIDTH 6 0
BBX 6 13 0 -2
BITMAP
00
18
24
20
18
24
24
18
08
48
30
00
00
ENDCHAR

STARTCHAR dieresis
ENCODING 168
SWIDTH 480 0
DWIDTH 6 0
BBX 6 13 0 -2
BITMAP
00
14
14
00
00
00
00
00
00
00
00
00
00
ENDCHAR

STARTCHAR copyright
ENCODING 169
SWIDTH 480 0
DWIDTH 6 0
BBX 6 13 0 -2
BITMAP
00
00
38
44
54
6C
64
D8
A8
88
70
00
00
ENDCHAR

STARTCHAR ordfeminine
ENCODING 170
SWIDTH 480 0
DWIDTH 6 0
BBX 6 13 0 -2
BITMAP
00
00
38
04
7C
88
78
00
F8
00
00
00
00
ENDCHAR

STARTCHAR guillemotleft
ENCODING 171
SWIDTH 480 0
DWIDTH 6 0
BBX 6 13 0 -2
BITMAP
00
00
00
00
14
28
50
50
50
28
00
00
00
ENDCHAR

STARTCHAR logicalnot
ENCODING 172
SWIDTH 480 0
DWIDTH 6 0
BBX 6 13 0 -2
BITMAP
00
00
00
00
00
00
7C
04
08
00
00
00
00
ENDCHAR

STARTCHAR hyphen
ENCODING 173
SWIDTH 480 0
DWIDTH 6 0
BBX 6 13 0 -2
BITMAP
00
00
00
00
00
00
38
00
00
00
00
00
00
ENDCHAR

STARTCHAR registered
ENCODING 174
SWIDTH 480 0
DWIDTH 6 0
BBX 6 13 0 -2
BITMAP
00
38
44
74
6C
6C
E8
D8
88
70
00
00
00
ENDCHAR

STARTCHAR macron
ENCODING 175
SWIDTH 480 0
DWIDTH 6 0
BBX 6 13 0 -2
BITMAP
00
00
7C
00
00
00
00
00
00
00
00
00
00
ENDCHAR

STARTCHAR degree
ENCODING 176
SWIDTH 480 0
DWIDTH 6 0
BBX 6 13 0 -2
BITMAP
00
00
30
48
48
30
00
00
00
00
00
00
00
ENDCHAR

STARTCHAR plusminus
ENCODING 177
SWIDTH 480 0
DWIDTH 6 0
BBX 6 13 0 -2
BITMAP
00
00
00
10
10
78
20
20
00
78
00
00
00
ENDCHAR

STARTCHAR twosuperior
ENCODING 178
SWIDTH 480 0
DWIDTH 6 0
BBX 6 13 0 -2
BITMAP
00
10
28
10
20
70
00
00
00
00
00
00
00
ENDCHAR

STARTCHAR threesuperior
ENCODING 179
SWIDTH 480 0
DWIDTH 6 0
BBX 6 13 0 -2
BITMAP
00
30
08
30
10
60
00
00
00
00
00
00
00
ENDCHAR

STARTCHAR acute
ENCODING 180
SWIDTH 480 0
DWIDTH 6 0
BBX 6 13 0 -2
BITMAP
00
08
10
00
00
00
00
00
00
00
00
00
00
ENDCHAR

STARTCHAR mu
ENCODING 181
SWIDTH 480 0
DWIDTH 6 0
BBX 6 13 0 -2
BITMAP
00
00
00
00
00
24
24
44
48
58
A8
80
80
ENDCHAR

STARTCHAR paragraph
ENCODING 182
SWIDTH 480 0
DWIDTH 6 0
BBX 6 13 0 -2
BITMAP
00
00
3C
74
74
74
74
28
28
28
28
00
00
ENDCHAR

STARTCHAR periodcentered
ENCODING 183
SWIDTH 480 0
DWIDTH 6 0
BBX 6 13 0 -2
BITMAP
00
00
00
00
00
00
18
00
00
00
00
00
00
ENDCHAR

STARTCHAR cedilla
ENCODING 184
SWIDTH 480 0
DWIDTH 6 0
BBX 6 13 0 -2
BITMAP
00
00
00
00
00
00
00
00
00
00
00
10
20
ENDCHAR

STARTCHAR onesuperior
ENCODING 185
SWIDTH 480 0
DWIDTH 6 0
BBX 6 13 0 -2
BITMAP
00
10
30
20
20
70
00
00
00
00
00
00
00
ENDCHAR

STARTCHAR ordmasculine
ENCODING 186
SWIDTH 480 0
DWIDTH 6 0
BBX 6 13 0 -2
BITMAP
00
00
38
44
44
88
70
00
F8
00
00
00
00
ENDCHAR

STARTCHAR guillemotright
ENCODING 187
SWIDTH 480 0
DWIDTH 6 0
BBX 6 13 0 -2
BITMAP
00
00
00
00
28
14
14
14
28
50
00
00
00
ENDCHAR

STARTCHAR onequarter
ENCODING 188
SWIDTH 480 0
DWIDTH 6 0
BBX 6 13 0 -2
BITMAP
00
10
30
20
20
70
04
1C
28
38
08
00
00
ENDCHAR

STARTCHAR onehalf
ENCODING 189
SWIDTH 480 0
DWIDTH 6 0
BBX 6 13 0 -2
BITMAP
00
10
30
20
20
70
08
14
08
10
38
00
00
ENDCHAR

STARTCHAR threequarters
ENCODING 190
SWIDTH 480 0
DWIDTH 6 0
BBX 6 13 0 -2
BITMAP
00
30
08
30
10
60
04
1C
28
38
08
00
00
ENDCHAR

STARTCHAR questiondown
ENCODING 191
SWIDTH 480 0
DWIDTH 6 0
BBX 6 13 0 -2
BITMAP
00
00
10
00
10
10
20
40
88
88
70
00
00
ENDCHAR

STARTCHAR Agrave
ENCODING 192
SWIDTH 480 0
DWIDTH 6 0
BBX 6 13 0 -2
BITMAP
00
20
10
00
10
28
44
44
F8
88
88
00
00
ENDCHAR

STARTCHAR Aacute
ENCODING 193
SWIDTH 480 0
DWIDTH 6 0
BBX 6 13 0 -2
BITMAP
00
08
10
00
10
28
44
44
F8
88
88
00
00
ENDCHAR

STARTCHAR Acircumflex
ENCODING 194
SWIDTH 480 0
DWIDTH 6 0
BBX 6 13 0 -2
BITMAP
00
18
24
00
10
28
44
44
F8
88
88
00
00
ENDCHAR

STARTCHAR Atilde
ENCODING 195
SWIDTH 480 0
DWIDTH 6 0
BBX 6 13 0 -2
BITMAP
00
14
28
00
10
28
44
44
F8
88
88
00
00
ENDCHAR

STARTCHAR Adieresis
ENCODING 196
SWIDTH 480 0
DWIDTH 6 0
BBX 6 13 0 -2
BITMAP
00
28
28
00
10
28
44
44
F8
88
88
00
00
ENDCHAR

STARTCHAR Aring
ENCODING 197
SWIDTH 480 0
DWIDTH 6 0
BBX 6 13 0 -2
BITMAP
00
10
28
10
10
28
44
44
F8
88
88
00
00
ENDCHAR

STARTCHAR AE
ENCODING 198
SWIDTH 480 0
DWIDTH 6 0
BBX 6 13 0 -2
BITMAP
00
00
2C
50
50
50
58
E0
A0
A0
B8
00
00
ENDCHAR

STARTCHAR Ccedilla
ENCODING 199
SWIDTH 480 0
DWIDTH 6 0
BBX 6 13 0 -2
BITMAP
00
00
38
44
40
40
40
80
80
88
70
20
40
ENDCHAR

STARTCHAR Egrave
ENCODING 200
SWIDTH 480 0
DWIDTH 6 0
BBX 6 13 0 -2
BITMAP
00
20
10
00
7C
40
40
78
80
80
F8
00
00
ENDCHAR

STARTCHAR Eacute
ENCODING 201
SWIDTH 480 0
DWIDTH 6 0
BBX 6 13 0 -2
BITMAP
00
08
10
00
7C
40
40
78
80
80
F8
00
00
ENDCHAR

STARTCHAR Ecircumflex
ENCODING 202
SWIDTH 480 0
DWIDTH 6 0
BBX 6 13 0 -2
BITMAP
00
18
24
00
7C
40
40
78
80
80
F8
00
00
ENDCHAR

STARTCHAR Edieresis
ENCODING 203
SWIDTH 480 0
DWIDTH 6 0
BBX 6 13 0 -2
BITMAP
00
28
28
00
7C
40
40
78
80
80
F8
00
00
ENDCHAR

STARTCHAR Igrave
ENCODING 204
SWIDTH 480 0
DWIDTH 6 0
BBX 6 13 0 -2
BITMAP
00
20
10
00
38
10
10
10
20
20
70
00
00
ENDCHAR

STARTCHAR Iacute
ENCODING 205
SWIDTH 480 0
DWIDTH 6 0
BBX 6 13 0 -2
BITMAP
00
08
10
00
38
10
10
10
20
20
70
00
00
ENDCHAR

STARTCHAR Icircumflex
ENCODING 206
SWIDTH 480 0
DWIDTH 6 0
BBX 6 13 0 -2
BITMAP
00
18
24
00
38
10
10
10
20
20
70
00
00
ENDCHAR

STARTCHAR Idieresis
ENCODING 207
SWIDTH 480 0
DWIDTH 6 0
BBX 6 13 0 -2
BITMAP
00
28
28
00
38
10
10
10
20
20
70
00
00
ENDCHAR

STARTCHAR Eth
ENCODING 208
SWIDTH 480 0
DWIDTH 6 0
BBX 6 13 0 -2
BITMAP
00
00
78
24
24
24
74
24
48
48
F0
00
00
ENDCHAR

STARTCHAR Ntilde
ENCODING 209
SWIDTH 480 0
DWIDTH 6 0
BBX 6 13 0 -2
BITMAP
00
14
28
00
44
44
64
58
88
88
88
00
00
ENDCHAR

STARTCHAR Ograve
ENCODING 210
SWIDTH 480 0
DWIDTH 6 0
BBX 6 13 0 -2
BITMAP
00
20
10
00
38
44
44
44
88
88
70
00
00
ENDCHAR

STARTCHAR Oacute
ENCODING 211
SWIDTH 480 0
DWIDTH 6 0
BBX 6 13 0 -2
BITMAP
00
08
10
00
38
44
44
44
88
88
70
00
00
ENDCHAR

STARTCHAR Ocircumflex
ENCODING 212
SWIDTH 480 0
DWIDTH 6 0
BBX 6 13 0 -2
BITMAP
00
18
24
00
38
44
44
44
88
88
70
00
00
ENDCHAR

STARTCHAR Otilde
ENCODING 213
SWIDTH 480 0
DWIDTH 6 0
BBX 6 13 0 -2
BITMAP
00
14
28
00
38
44
44
44
88
88
70
00
00
ENDCHAR

STARTCHAR Odieresis
ENCODING 214
SWIDTH 480 0
DWIDTH 6 0
BBX 6 13 0 -2
BITMAP
00
28
28
00
38
44
44
44
88
88
70
00
00
ENDCHAR

STARTCHAR multiply
ENCODING 215
SWIDTH 480 0
DWIDTH 6 0
BBX 6 13 0 -2
BITMAP
00
00
00
00
00
44
28
30
50
88
00
00
00
ENDCHAR

STARTCHAR Oslash
ENCODING 216
SWIDTH 480 0
DWIDTH 6 0
BBX 6 13 0 -2
BITMAP
00
04
3C
4C
4C
54
54
A8
E8
E8
70
80
00
ENDCHAR

STARTCHAR Ugrave
ENCODING 217
SWIDTH 480 0
DWIDTH 6 0
BBX 6 13 0 -2
BITMAP
00
20
10
00
44
44
44
88
88
88
70
00
00
ENDCHAR

STARTCHAR Uacute
ENCODING 218
SWIDTH 480 0
DWIDTH 6 0
BBX 6 13 0 -2
BITMAP
00
08
10
00
44
44
44
88
88
88
70
00
00
ENDCHAR

STARTCHAR Ucircumflex
ENCODING 219
SWIDTH 480 0
DWIDTH 6 0
BBX 6 13 0 -2
BITMAP
00
18
24
00
44
44
44
88
88
88
70
00
00
ENDCHAR

STARTCHAR Udieresis
ENCODING 220
SWIDTH 480 0
DWIDTH 6 0
BBX 6 13 0 -2
BITMAP
00
28
28
00
44
44
44
88
88
88
70
00
00
ENDCHAR

STARTCHAR Yacute
ENCODING 221
SWIDTH 480 0
DWIDTH 6 0
BBX 6 13 0 -2
BITMAP
00
08
10
00
44
44
28
10
20
20
20
00
00
ENDCHAR

STARTCHAR Thorn
ENCODING 222
SWIDTH 480 0
DWIDTH 6 0
BBX 6 13 0 -2
BITMAP
00
00
40
78
44
44
48
F0
80
80
80
00
00
ENDCHAR

STARTCHAR germandbls
ENCODING 223
SWIDTH 480 0
DWIDTH 6 0
BBX 6 13 0 -2
BITMAP
00
00
30
48
48
50
50
90
88
88
B0
00
00
ENDCHAR

STARTCHAR agrave
ENCODING 224
SWIDTH 480 0
DWIDTH 6 0
BBX 6 13 0 -2
BITMAP
00
00
20
10
00
38
04
7C
88
98
68
00
00
ENDCHAR

STARTCHAR aacute
ENCODING 225
SWIDTH 480 0
DWIDTH 6 0
BBX 6 13 0 -2
BITMAP
00
00
08
10
00
38
04
7C
88
98
68
00
00
ENDCHAR

STARTCHAR acircumflex
ENCODING 226
SWIDTH 480 0
DWIDTH 6 0
BBX 6 13 0 -2
BITMAP
00
00
18
24
00
38
04
7C
88
98
68
00
00
ENDCHAR

STARTCHAR atilde
ENCODING 227
SWIDTH 480 0
DWIDTH 6 0
BBX 6 13 0 -2
BITMAP
00
00
14
28
00
38
04
7C
88
98
68
00
00
ENDCHAR

STARTCHAR adieresis
ENCODING 228
SWIDTH 480 0
DWIDTH 6 0
BBX 6 13 0 -2
BITMAP
00
00
28
28
00
38
04
7C
88
98
68
00
00
ENDCHAR

STARTCHAR aring
ENCODING 229
SWIDTH 480 0
DWIDTH 6 0
BBX 6 13 0 -2
BITMAP
00
18
24
18
00
38
04
7C
88
98
68
00
00
ENDCHAR

STARTCHAR ae
ENCODING 230
SWIDTH 480 0
DWIDTH 6 0
BBX 6 13 0 -2
BITMAP
00
00
00
00
00
38
14
78
A0
A8
50
00
00
ENDCHAR

STARTCHAR ccedilla
ENCODING 231
SWIDTH 480 0
DWIDTH 6 0
BBX 6 13 0 -2
BITMAP
00
00
00
00
00
38
44
40
80
88
70
20
40
ENDCHAR

STARTCHAR egrave
ENCODING 232
SWIDTH 480 0
DWIDTH 6 0
BBX 6 13 0 -2
BITMAP
00
00
20
10
00
38
44
7C
80
88
70
00
00
ENDCHAR

STARTCHAR eacute
ENCODING 233
SWIDTH 480 0
DWIDTH 6 0
BBX 6 13 0 -2
BITMAP
00
00
08
10
00
38
44
7C
80
88
70
00
00
ENDCHAR

STARTCHAR ecircumflex
ENCODING 234
SWIDTH 480 0
DWIDTH 6 0
BBX 6 13 0 -2
BITMAP
00
00
18
24
00
38
44
7C
80
88
70
00
00
ENDCHAR

STARTCHAR edieresis
ENCODING 235
SWIDTH 480 0
DWIDTH 6 0
BBX 6 13 0 -2
BITMAP
00
00
28
28
00
38
44
7C
80
88
70
00
00
ENDCHAR

STARTCHAR igrave
ENCODING 236
SWIDTH 480 0
DWIDTH 6 0
BBX 6 13 0 -2
BITMAP
00
00
20
10
00
30
10
10
20
20
70
00
00
ENDCHAR

STARTCHAR iacute
ENCODING 237
SWIDTH 480 0
DWIDTH 6 0
BBX 6 13 0 -2
BITMAP
00
00
08
10
00
30
10
10
20
20
70
00
00
ENDCHAR

STARTCHAR icircumflex
ENCODING 238
SWIDTH 480 0
DWIDTH 6 0
BBX 6 13 0 -2
BITMAP
00
00
18
24
00
30
10
10
20
20
70
00
00
ENDCHAR

STARTCHAR idieresis
ENCODING 239
SWIDTH 480 0
DWIDTH 6 0
BBX 6 13 0 -2
BITMAP
00
00
28
28
00
30
10
10
20
20
70
00
00
ENDCHAR

STARTCHAR eth
ENCODING 240
SWIDTH 480 0
DWIDTH 6 0
BBX 6 13 0 -2
BITMAP
00
20
18
30
08
38
44
44
88
88
70
00
00
ENDCHAR

STARTCHAR ntilde
ENCODING 241
SWIDTH 480 0
DWIDTH 6 0
BBX 6 13 0 -2
BITMAP
00
00
14
28
00
58
64
44
88
88
88
00
00
ENDCHAR

STARTCHAR ograve
ENCODING 242
SWIDTH 480 0
DWIDTH 6 0
BBX 6 13 0 -2
BITMAP
00
00
20
10
00
38
44
44
88
88
70
00
00
ENDCHAR

STARTCHAR oacute
ENCODING 243
SWIDTH 480 0
DWIDTH 6 0
BBX 6 13 0 -2
BITMAP
00
00
08
10
00
38
44
44
88
88
70
00
00
ENDCHAR

STARTCHAR ocircumflex
ENCODING 244
SWIDTH 480 0
DWIDTH 6 0
BBX 6 13 0 -2
BITMAP
00
00
18
24
00
38
44
44
88
88
70
00
00
ENDCHAR

STARTCHAR otilde
ENCODING 245
SWIDTH 480 0
DWIDTH 6 0
BBX 6 13 0 -2
BITMAP
00
00
14
28
00
38
44
44
88
88
70
00
00
ENDCHAR

STARTCHAR odieresis
ENCODING 246
SWIDTH 480 0
DWIDTH 6 0
BBX 6 13 0 -2
BITMAP
00
00
28
28
00
38
44
44
88
88
70
00
00
ENDCHAR

STARTCHAR divide
ENCODING 247
SWIDTH 480 0
DWIDTH 6 0
BBX 6 13 0 -2
BITMAP
00
00
00
10
10
00
7C
00
20
20
00
00
00
ENDCHAR

STARTCHAR oslash
ENCODING 248
SWIDTH 480 0
DWIDTH 6 0
BBX 6 13 0 -2
BITMAP
00
00
00
00
04
38
4C
54
A8
C8
70
80
00
ENDCHAR

STARTCHAR ugrave
ENCODING 249
SWIDTH 480 0
DWIDTH 6 0
BBX 6 13 0 -2
BITMAP
00
00
20
10
00
44
44
44
88
98
68
00
00
ENDCHAR

STARTCHAR uacute
ENCODING 250
SWIDTH 480 0
DWIDTH 6 0
BBX 6 13 0 -2
BITMAP
00
00
08
10
00
44
44
44
88
98
68
00
00
ENDCHAR

STARTCHAR ucircumflex
ENCODING 251
SWIDTH 480 0
DWIDTH 6 0
BBX 6 13 0 -2
BITMAP
00
00
18
24
00
44
44
44
88
98
68
00
00
ENDCHAR

STARTCHAR udieresis
ENCODING 252
SWIDTH 480 0
DWIDTH 6 0
BBX 6 13 0 -2
BITMAP
00
00
28
28
00
44
44
44
88
98
68
00
00
ENDCHAR

STARTCHAR yacute
ENCODING 253
SWIDTH 480 0
DWIDTH 6 0
BBX 6 13 0 -2
BITMAP
00
00
08
10
00
44
44
88
98
68
08
90
60
ENDCHAR

STARTCHAR thorn
ENCODING 254
SWIDTH 480 0
DWIDTH 6 0
BBX 6 13 0 -2
BITMAP
00
00
00
40
40
58
64
44
88
C8
B0
80
80
ENDCHAR

STARTCHAR ydieresis
ENCODING 255
SWIDTH 480 0
DWIDTH 6 0
BBX 6 13 0 -2
BITMAP
00
00
28
28
00
44
44
88
98
68
08
90
60
ENDCHAR

STARTCHAR Amacron
ENCODING 256
SWIDTH 480 0
DWIDTH 6 0
BBX 6 13 0 -2
BITMAP
00
3C
00
10
28
44
44
7C
88
88
88
00
00
ENDCHAR

STARTCHAR amacron
ENCODING 257
SWIDTH 480 0
DWIDTH 6 0
BBX 6 13 0 -2
BITMAP
00
00
00
7C
00
38
04
7C
88
98
68
00
00
ENDCHAR

STARTCHAR Abreve
ENCODING 258
SWIDTH 480 0
DWIDTH 6 0
BBX 6 13 0 -2
BITMAP
00
44
38
00
10
28
44
44
F8
88
88
00
00
ENDCHAR

STARTCHAR abreve
ENCODING 259
SWIDTH 480 0
DWIDTH 6 0
BBX 6 13 0 -2
BITMAP
00
00
44
38
00
38
04
7C
88
98
68
00
00
ENDCHAR

STARTCHAR Aogonek
ENCODING 260
SWIDTH 480 0
DWIDTH 6 0
BBX 6 13 0 -2
BITMAP
00
00
10
28
44
44
44
7C
88
88
88
08
04
ENDCHAR

STARTCHAR aogonek
ENCODING 261
SWIDTH 480 0
DWIDTH 6 0
BBX 6 13 0 -2
BITMAP
00
00
00
00
00
38
04
7C
88
98
68
08
04
ENDCHAR

STARTCHAR Cacute
ENCODING 262
SWIDTH 480 0
DWIDTH 6 0
BBX 6 13 0 -2
BITMAP
00
08
10
00
38
44
40
80
80
88
70
00
00
ENDCHAR

STARTCHAR cacute
ENCODING 263
SWIDTH 480 0
DWIDTH 6 0
BBX 6 13 0 -2
BITMAP
00
00
08
10
00
38
44
40
80
88
70
00
00
ENDCHAR

STARTCHAR Ccircumflex
ENCODING 264
SWIDTH 480 0
DWIDTH 6 0
BBX 6 13 0 -2
BITMAP
00
18
24
00
38
44
40
80
80
88
70
00
00
ENDCHAR

STARTCHAR ccircumflex
ENCODING 265
SWIDTH 480 0
DWIDTH 6 0
BBX 6 13 0 -2
BITMAP
00
00
18
24
00
38
44
40
80
88
70
00
00
ENDCHAR

STARTCHAR Cdotaccent
ENCODING 266
SWIDTH 480 0
DWIDTH 6 0
BBX 6 13 0 -2
BITMAP
00
10
10
00
38
44
40
80
80
88
70
00
00
ENDCHAR

STARTCHAR cdotaccent
ENCODING 267
SWIDTH 480 0
DWIDTH 6 0
BBX 6 13 0 -2
BITMAP
00
00
10
10
00
38
44
40
80
88
70
00
00
ENDCHAR

STARTCHAR Ccaron
ENCODING 268
SWIDTH 480 0
DWIDTH 6 0
BBX 6 13 0 -2
BITMAP
00
24
18
00
38
44
40
80
80
88
70
00
00
ENDCHAR

STARTCHAR ccaron
ENCODING 269
SWIDTH 480 0
DWIDTH 6 0
BBX 6 13 0 -2
BITMAP
00
00
24
18
00
38
44
40
80
88
70
00
00
ENDCHAR

STARTCHAR Dcaron
ENCODING 270
SWIDTH 480 0
DWIDTH 6 0
BBX 6 13 0 -2
BITMAP
00
24
18
00
78
24
24
24
48
48
F0
00
00
ENDCHAR

STARTCHAR dcaron
ENCODING 271
SWIDTH 480 0
DWIDTH 6 0
BBX 6 13 0 -2
BITMAP
24
18
00
04
04
3C
44
44
88
88
78
00
00
ENDCHAR

STARTCHAR Dcroat
ENCODING 272
SWIDTH 480 0
DWIDTH 6 0
BBX 6 13 0 -2
BITMAP
00
00
78
24
24
24
74
24
48
48
F0
00
00
ENDCHAR

STARTCHAR dcroat
ENCODING 273
SWIDTH 480 0
DWIDTH 6 0
BBX 6 13 0 -2
BITMAP
00
00
08
1C
08
38
48
48
90
90
70
00
00
ENDCHAR

STARTCHAR Emacron
ENCODING 274
SWIDTH 480 0
DWIDTH 6 0
BBX 6 13 0 -2
BITMAP
00
3C
00
7C
40
40
78
80
80
80
F8
00
00
ENDCHAR

STARTCHAR emacron
ENCODING 275
SWIDTH 480 0
DWIDTH 6 0
BBX 6 13 0 -2
BITMAP
00
00
00
7C
00
38
44
7C
80
88
70
00
00
ENDCHAR

STARTCHAR Ebreve
ENCODING 276
SWIDTH 480 0
DWIDTH 6 0
BBX 6 13 0 -2
BITMAP
00
44
38
00
7C
40
40
78
80
80
F8
00
00
ENDCHAR

STARTCHAR ebreve
ENCODING 277
SWIDTH 480 0
DWIDTH 6 0
BBX 6 13 0 -2
BITMAP
00
00
44
38
00
38
44
7C
80
88
70
00
00
ENDCHAR

STARTCHAR Edotaccent
ENCODING 278
SWIDTH 480 0
DWIDTH 6 0
BBX 6 13 0 -2
BITMAP
00
10
10
00
7C
40
40
78
80
80
F8
00
00
ENDCHAR

STARTCHAR edotaccent
ENCODING 279
SWIDTH 480 0
DWIDTH 6 0
BBX 6 13 0 -2
BITMAP
00
00
10
10
00
38
44
7C
80
88
70
00
00
ENDCHAR

STARTCHAR Eogonek
ENCODING 280
SWIDTH 480 0
DWIDTH 6 0
BBX 6 13 0 -2
BITMAP
00
00
7C
40
40
40
78
80
80
80
F8
20
10
ENDCHAR

STARTCHAR eogonek
ENCODING 281
SWIDTH 480 0
DWIDTH 6 0
BBX 6 13 0 -2
BITMAP
00
00
00
00
00
38
44
7C
80
88
70
20
10
ENDCHAR

STARTCHAR Ecaron
ENCODING 282
SWIDTH 480 0
DWIDTH 6 0
BBX 6 13 0 -2
BITMAP
00
24
18
00
7C
40
40
78
80
80
F8
00
00
ENDCHAR

STARTCHAR ecaron
ENCODING 283
SWIDTH 480 0
DWIDTH 6 0
BBX 6 13 0 -2
BITMAP
00
00
24
18
00
38
44
7C
80
88
70
00
00
ENDCHAR

STARTCHAR Gcircumflex
ENCODING 284
SWIDTH 480 0
DWIDTH 6 0
BBX 6 13 0 -2
BITMAP
00
18
24
00
38
44
40
80
98
88
70
00
00
ENDCHAR

STARTCHAR gcircumflex
ENCODING 285
SWIDTH 480 0
DWIDTH 6 0
BBX 6 13 0 -2
BITMAP
00
00
18
24
00
38
44
44
88
78
08
88
70
ENDCHAR

STARTCHAR Gbreve
ENCODING 286
SWIDTH 480 0
DWIDTH 6 0
BBX 6 13 0 -2
BITMAP
00
44
38
00
38
44
40
80
98
88
70
00
00
ENDCHAR

STARTCHAR gbreve
ENCODING 287
SWIDTH 480 0
DWIDTH 6 0
BBX 6 13 0 -2
BITMAP
00
00
44
38
00
38
44
44
88
78
08
88
70
ENDCHAR

STARTCHAR Gdotaccent
ENCODING 288
SWIDTH 480 0
DWIDTH 6 0
BBX 6 13 0 -2
BITMAP
00
10
10
00
38
44
40
80
98
88
70
00
00
ENDCHAR

STARTCHAR gdotaccent
ENCODING 289
SWIDTH 480 0
DWIDTH 6 0
BBX 6 13 0 -2
BITMAP
00
00
10
10
00
38
44
44
88
78
08
88
70
ENDCHAR

STARTCHAR Gcommaaccent
ENCODING 290
SWIDTH 480 0
DWIDTH 6 0
BBX 6 13 0 -2
BITMAP
00
00
38
44
40
40
40
98
88
88
70
20
40
ENDCHAR

STARTCHAR gcommaaccent
ENCODING 291
SWIDTH 480 0
DWIDTH 6 0
BBX 6 13 0 -2
BITMAP
00
08
10
18
00
38
44
44
88
78
08
88
70
ENDCHAR

STARTCHAR Hcircumflex
ENCODING 292
SWIDTH 480 0
DWIDTH 6 0
BBX 6 13 0 -2
BITMAP
00
18
24
00
44
44
44
7C
88
88
88
00
00
ENDCHAR

STARTCHAR hcircumflex
ENCODING 293
SWIDTH 480 0
DWIDTH 6 0
BBX 6 13 0 -2
BITMAP
00
18
24
00
20
40
58
64
44
88
88
00
00
ENDCHAR

STARTCHAR Hbar
ENCODING 294
SWIDTH 480 0
DWIDTH 6 0
BBX 6 13 0 -2
BITMAP
00
00
44
44
7C
44
7C
88
88
88
88
00
00
ENDCHAR

STARTCHAR hbar
ENCODING 295
SWIDTH 480 0
DWIDTH 6 0
BBX 6 13 0 -2
BITMAP
00
00
40
F0
40
58
64
44
88
88
88
00
00
ENDCHAR

STARTCHAR Itilde
ENCODING 296
SWIDTH 480 0
DWIDTH 6 0
BBX 6 13 0 -2
BITMAP
00
14
28
00
38
10
10
10
20
20
70
00
00
ENDCHAR

STARTCHAR itilde
ENCODING 297
SWIDTH 480 0
DWIDTH 6 0
BBX 6 13 0 -2
BITMAP
00
00
28
50
00
30
10
10
20
20
70
00
00
ENDCHAR

STARTCHAR Imacron
ENCODING 298
SWIDTH 480 0
DWIDTH 6 0
BBX 6 13 0 -2
BITMAP
00
3C
00
38
10
10
10
20
20
20
70
00
00
ENDCHAR

STARTCHAR imacron
ENCODING 299
SWIDTH 480 0
DWIDTH 6 0
BBX 6 13 0 -2
BITMAP
00
00
00
3C
00
30
10
10
20
20
70
00
00
ENDCHAR

STARTCHAR Ibreve
ENCODING 300
SWIDTH 480 0
DWIDTH 6 0
BBX 6 13 0 -2
BITMAP
00
44
38
00
38
10
10
10
20
20
70
00
00
ENDCHAR

STARTCHAR ibreve
ENCODING 301
SWIDTH 480 0
DWIDTH 6 0
BBX 6 13 0 -2
BITMAP
00
00
44
38
00
30
10
10
20
20
70
00
00
ENDCHAR

STARTCHAR Iogonek
ENCODING 302
SWIDTH 480 0
DWIDTH 6 0
BBX 6 13 0 -2
BITMAP
00
00
38
10
10
10
10
20
20
20
70
20
10
ENDCHAR

STARTCHAR iogonek
ENCODING 303
SWIDTH 480 0
DWIDTH 6 0
BBX 6 13 0 -2
BITMAP
00
00
00
10
00
30
10
10
20
20
70
20
10
ENDCHAR

STARTCHAR Idotaccent
ENCODING 304
SWIDTH 480 0
DWIDTH 6 0
BBX 6 13 0 -2
BITMAP
00
10
10
00
38
10
10
10
20
20
70
00
00
ENDCHAR

STARTCHAR dotlessi
ENCODING 305
SWIDTH 480 0
DWIDTH 6 0
BBX 6 13 0 -2
BITMAP
00
00
00
00
00
30
10
10
20
20
70
00
00
ENDCHAR

STARTCHAR IJ
ENCODING 306
SWIDTH 480 0
DWIDTH 6 0
BBX 6 13 0 -2
BITMAP
00
00
6C
44
44
44
44
88
88
A8
D0
00
00
ENDCHAR

STARTCHAR ij
ENCODING 307
SWIDTH 480 0
DWIDTH 6 0
BBX 6 13 0 -2
BITMAP
00
00
00
24
00
6C
24
24
48
48
E8
48
30
ENDCHAR

STARTCHAR Jcircumflex
ENCODING 308
SWIDTH 480 0
DWIDTH 6 0
BBX 6 13 0 -2
BITMAP
00
18
24
00
1C
08
08
08
10
90
60
00
00
ENDCHAR

STARTCHAR jcircumflex
ENCODING 309
SWIDTH 480 0
DWIDTH 6 0
BBX 6 13 0 -2
BITMAP
00
00
18
24
00
18
08
08
10
10
90
90
60
ENDCHAR

STARTCHAR Kcommaaccent
ENCODING 310
SWIDTH 480 0
DWIDTH 6 0
BBX 6 13 0 -2
BITMAP
00
00
44
44
48
50
60
A0
90
88
88
40
80
ENDCHAR

STARTCHAR kcommaaccent
ENCODING 311
SWIDTH 480 0
DWIDTH 6 0
BBX 6 13 0 -2
BITMAP
00
00
40
40
40
48
50
60
A0
90
88
40
80
ENDCHAR

STARTCHAR kgreenlandic
ENCODING 312
SWIDTH 480 0
DWIDTH 6 0
BBX 6 13 0 -2
BITMAP
00
00
00
00
00
44
48
50
A0
90
88
00
00
ENDCHAR

STARTCHAR Lacute
ENCODING 313
SWIDTH 480 0
DWIDTH 6 0
BBX 6 13 0 -2
BITMAP
00
20
40
00
40
40
40
40
80
80
F8
00
00
ENDCHAR

STARTCHAR lacute
ENCODING 314
SWIDTH 480 0
DWIDTH 6 0
BBX 6 13 0 -2
BITMAP
08
10
00
30
10
10
10
20
20
20
70
00
00
ENDCHAR

STARTCHAR Lcommaaccent
ENCODING 315
SWIDTH 480 0
DWIDTH 6 0
BBX 6 13 0 -2
BITMAP
00
00
40
40
40
40
40
80
80
80
F8
20
40
ENDCHAR

STARTCHAR lcommaaccent
ENCODING 316
SWIDTH 480 0
DWIDTH 6 0
BBX 6 13 0 -2
BITMAP
00
00
30
10
10
10
10
20
20
20
70
20
40
ENDCHAR

STARTCHAR Lcaron
ENCODING 317
SWIDTH 480 0
DWIDTH 6 0
BBX 6 13 0 -2
BITMAP
00
24
18
00
20
20
20
20
40
40
78
00
00
ENDCHAR

STARTCHAR lcaron
ENCODING 318
SWIDTH 480 0
DWIDTH 6 0
BBX 6 13 0 -2
BITMAP
24
18
00
30
10
10
10
20
20
20
70
00
00
ENDCHAR

STARTCHAR Ldot
ENCODING 319
SWIDTH 480 0
DWIDTH 6 0
BBX 6 13 0 -2
BITMAP
00
00
40
40
40
48
48
80
80
80
F8
00
00
ENDCHAR

STARTCHAR ldot
ENCODING 320
SWIDTH 480 0
DWIDTH 6 0
BBX 6 13 0 -2
BITMAP
00
00
30
10
10
14
14
20
20
20
70
00
00
ENDCHAR

STARTCHAR Lslash
ENCODING 321
SWIDTH 480 0
DWIDTH 6 0
BBX 6 13 0 -2
BITMAP
00
00
20
20
30
60
20
40
40
40
78
00
00
ENDCHAR

STARTCHAR lslash
ENCODING 322
SWIDTH 480 0
DWIDTH 6 0
BBX 6 13 0 -2
BITMAP
00
00
30
10
18
30
10
20
20
20
70
00
00
ENDCHAR

STARTCHAR Nacute
ENCODING 323
SWIDTH 480 0
DWIDTH 6 0
BBX 6 13 0 -2
BITMAP
00
08
10
00
44
64
64
58
98
88
88
00
00
ENDCHAR

STARTCHAR nacute
ENCODING 324
SWIDTH 480 0
DWIDTH 6 0
BBX 6 13 0 -2
BITMAP
00
00
08
10
00
58
64
44
88
88
88
00
00
ENDCHAR

STARTCHAR Ncommaaccent
ENCODING 325
SWIDTH 480 0
DWIDTH 6 0
BBX 6 13 0 -2
BITMAP
00
00
44
64
64
54
54
88
88
88
88
40
80
ENDCHAR

STARTCHAR ncommaaccent
ENCODING 326
SWIDTH 480 0
DWIDTH 6 0
BBX 6 13 0 -2
BITMAP
00
00
00
00
00
58
64
44
88
88
88
40
80
ENDCHAR

STARTCHAR Ncaron
ENCODING 327
SWIDTH 480 0
DWIDTH 6 0
BBX 6 13 0 -2
BITMAP
00
24
18
00
44
64
64
54
88
88
88
00
00
ENDCHAR

STARTCHAR ncaron
ENCODING 328
SWIDTH 480 0
DWIDTH 6 0
BBX 6 13 0 -2
BITMAP
00
00
24
18
00
58
64
44
88
88
88
00
00
ENDCHAR

STARTCHAR napostrophe
ENCODING 329
SWIDTH 480 0
DWIDTH 6 0
BBX 6 13 0 -2
BITMAP
00
C0
40
80
00
58
64
44
88
88
88
00
00
ENDCHAR

STARTCHAR Eng
ENCODING 330
SWIDTH 480 0
DWIDTH 6 0
BBX 6 13 0 -2
BITMAP
00
00
44
64
64
54
54
88
88
88
88
28
10
ENDCHAR

STARTCHAR eng
ENCODING 331
SWIDTH 480 0
DWIDTH 6 0
BBX 6 13 0 -2
BITMAP
00
00
00
00
00
58
64
44
88
88
88
28
10
ENDCHAR

STARTCHAR Omacron
ENCODING 332
SWIDTH 480 0
DWIDTH 6 0
BBX 6 13 0 -2
BITMAP
00
3C
00
38
44
44
44
88
88
88
70
00
00
ENDCHAR

STARTCHAR omacron
ENCODING 333
SWIDTH 480 0
DWIDTH 6 0
BBX 6 13 0 -2
BITMAP
00
00
00
7C
00
38
44
44
88
88
70
00
00
ENDCHAR

STARTCHAR Obreve
ENCODING 334
SWIDTH 480 0
DWIDTH 6 0
BBX 6 13 0 -2
BITMAP
00
44
38
00
38
44
44
88
88
88
70
00
00
ENDCHAR

STARTCHAR obreve
ENCODING 335
SWIDTH 480 0
DWIDTH 6 0
BBX 6 13 0 -2
BITMAP
00
00
44
38
00
38
44
44
88
88
70
00
00
ENDCHAR

STARTCHAR Ohungarumlaut
ENCODING 336
SWIDTH 480 0
DWIDTH 6 0
BBX 6 13 0 -2
BITMAP
00
24
48
00
38
44
44
88
88
88
70
00
00
ENDCHAR

STARTCHAR ohungarumlaut
ENCODING 337
SWIDTH 480 0
DWIDTH 6 0
BBX 6 13 0 -2
BITMAP
00
00
24
48
00
38
44
44
88
88
70
00
00
ENDCHAR

STARTCHAR OE
ENCODING 338
SWIDTH 480 0
DWIDTH 6 0
BBX 6 13 0 -2
BITMAP
00
00
3C
50
50
50
58
A0
A0
A0
78
00
00
ENDCHAR

STARTCHAR oe
ENCODING 339
SWIDTH 480 0
DWIDTH 6 0
BBX 6 13 0 -2
BITMAP
00
00
00
00
00
28
54
5C
A0
A8
50
00
00
ENDCHAR

STARTCHAR Racute
ENCODING 340
SWIDTH 480 0
DWIDTH 6 0
BBX 6 13 0 -2
BITMAP
00
08
10
00
78
44
44
78
90
88
88
00
00
ENDCHAR

STARTCHAR racute
ENCODING 341
SWIDTH 480 0
DWIDTH 6 0
BBX 6 13 0 -2
BITMAP
00
00
08
10
00
58
64
40
80
80
80
00
00
ENDCHAR

STARTCHAR Rcommaaccent
ENCODING 342
SWIDTH 480 0
DWIDTH 6 0
BBX 6 13 0 -2
BITMAP
00
00
78
44
44
44
78
90
90
88
88
40
80
ENDCHAR

STARTCHAR rcommaaccent
ENCODING 343
SWIDTH 480 0
DWIDTH 6 0
BBX 6 13 0 -2
BITMAP
00
00
00
00
00
58
64
40
80
80
80
40
80
ENDCHAR

STARTCHAR Rcaron
ENCODING 344
SWIDTH 480 0
DWIDTH 6 0
BBX 6 13 0 -2
BITMAP
00
24
18
00
78
44
44
78
90
88
88
00
00
ENDCHAR

STARTCHAR rcaron
ENCODING 345
SWIDTH 480 0
DWIDTH 6 0
BBX 6 13 0 -2
BITMAP
00
00
48
30
00
58
64
40
80
80
80
00
00
ENDCHAR

STARTCHAR Sacute
ENCODING 346
SWIDTH 480 0
DWIDTH 6 0
BBX 6 13 0 -2
BITMAP
00
08
10
00
38
44
40
30
08
88
70
00
00
ENDCHAR

STARTCHAR sacute
ENCODING 347
SWIDTH 480 0
DWIDTH 6 0
BBX 6 13 0 -2
BITMAP
00
00
08
10
00
38
44
20
10
88
70
00
00
ENDCHAR

STARTCHAR Scircumflex
ENCODING 348
SWIDTH 480 0
DWIDTH 6 0
BBX 6 13 0 -2
BITMAP
00
18
24
00
38
44
40
30
08
88
70
00
00
ENDCHAR

STARTCHAR scircumflex
ENCODING 349
SWIDTH 480 0
DWIDTH 6 0
BBX 6 13 0 -2
BITMAP
00
00
18
24
00
38
44
20
10
88
70
00
00
ENDCHAR

STARTCHAR Scedilla
ENCODING 350
SWIDTH 480 0
DWIDTH 6 0
BBX 6 13 0 -2
BITMAP
00
00
38
44
40
40
30
08
08
88
70
20
40
ENDCHAR

STARTCHAR scedilla
ENCODING 351
SWIDTH 480 0
DWIDTH 6 0
BBX 6 13 0 -2
BITMAP
00
00
00
00
00
38
44
20
10
88
70
20
40
ENDCHAR

STARTCHAR Scaron
ENCODING 352
SWIDTH 480 0
DWIDTH 6 0
BBX 6 13 0 -2
BITMAP
00
24
18
00
38
44
40
30
08
88
70
00
00
ENDCHAR

STARTCHAR scaron
ENCODING 353
SWIDTH 480 0
DWIDTH 6 0
BBX 6 13 0 -2
BITMAP
00
00
24
18
00
38
44
20
10
88
70
00
00
ENDCHAR

STARTCHAR Tcommaaccent
ENCODING 354
SWIDTH 480 0
DWIDTH 6 0
BBX 6 13 0 -2
BITMAP
00
00
7C
10
10
10
10
20
20
20
20
10
20
ENDCHAR

STARTCHAR tcommaaccent
ENCODING 355
SWIDTH 480 0
DWIDTH 6 0
BBX 6 13 0 -2
BITMAP
00
00
00
10
10
78
20
20
40
48
30
20
40
ENDCHAR

STARTCHAR Tcaron
ENCODING 356
SWIDTH 480 0
DWIDTH 6 0
BBX 6 13 0 -2
BITMAP
00
24
18
00
7C
10
10
10
20
20
20
00
00
ENDCHAR

STARTCHAR tcaron
ENCODING 357
SWIDTH 480 0
DWIDTH 6 0
BBX 6 13 0 -2
BITMAP
00
24
18
00
20
78
20
20
40
48
30
00
00
ENDCHAR

STARTCHAR Tbar
ENCODING 358
SWIDTH 480 0
DWIDTH 6 0
BBX 6 13 0 -2
BITMAP
00
00
7C
10
10
38
10
20
20
20
20
00
00
ENDCHAR

STARTCHAR tbar
ENCODING 359
SWIDTH 480 0
DWIDTH 6 0
BBX 6 13 0 -2
BITMAP
00
00
00
10
10
78
20
F0
40
48
30
00
00
ENDCHAR

STARTCHAR Utilde
ENCODING 360
SWIDTH 480 0
DWIDTH 6 0
BBX 6 13 0 -2
BITMAP
00
14
28
00
44
44
44
88
88
88
70
00
00
ENDCHAR

STARTCHAR utilde
ENCODING 361
SWIDTH 480 0
DWIDTH 6 0
BBX 6 13 0 -2
BITMAP
00
00
14
28
00
44
44
44
88
98
68
00
00
ENDCHAR

STARTCHAR Umacron
ENCODING 362
SWIDTH 480 0
DWIDTH 6 0
BBX 6 13 0 -2
BITMAP
00
3C
00
44
44
44
44
88
88
88
70
00
00
ENDCHAR

STARTCHAR umacron
ENCODING 363
SWIDTH 480 0
DWIDTH 6 0
BBX 6 13 0 -2
BITMAP
00
00
00
7C
00
44
44
44
88
98
68
00
00
ENDCHAR

STARTCHAR Ubreve
ENCODING 364
SWIDTH 480 0
DWIDTH 6 0
BBX 6 13 0 -2
BITMAP
00
20
1C
00
44
44
44
88
88
88
70
00
00
ENDCHAR

STARTCHAR ubreve
ENCODING 365
SWIDTH 480 0
DWIDTH 6 0
BBX 6 13 0 -2
BITMAP
00
00
44
38
00
44
44
44
88
98
68
00
00
ENDCHAR

STARTCHAR Uring
ENCODING 366
SWIDTH 480 0
DWIDTH 6 0
BBX 6 13 0 -2
BITMAP
08
14
08
00
44
44
44
88
88
88
70
00
00
ENDCHAR

STARTCHAR uring
ENCODING 367
SWIDTH 480 0
DWIDTH 6 0
BBX 6 13 0 -2
BITMAP
00
10
28
10
00
44
44
44
88
98
68
00
00
ENDCHAR

STARTCHAR Uhungarumlaut
ENCODING 368
SWIDTH 480 0
DWIDTH 6 0
BBX 6 13 0 -2
BITMAP
00
24
48
00
44
44
44
88
88
88
70
00
00
ENDCHAR

STARTCHAR uhungarumlaut
ENCODING 369
SWIDTH 480 0
DWIDTH 6 0
BBX 6 13 0 -2
BITMAP
00
00
24
48
00
44
44
44
88
98
68
00
00
ENDCHAR

STARTCHAR Uogonek
ENCODING 370
SWIDTH 480 0
DWIDTH 6 0
BBX 6 13 0 -2
BITMAP
00
00
44
44
44
44
44
88
88
88
70
20
10
ENDCHAR

STARTCHAR uogonek
ENCODING 371
SWIDTH 480 0
DWIDTH 6 0
BBX 6 13 0 -2
BITMAP
00
00
00
00
00
44
44
44
88
98
68
20
10
ENDCHAR

STARTCHAR Wcircumflex
ENCODING 372
SWIDTH 480 0
DWIDTH 6 0
BBX 6 13 0 -2
BITMAP
00
18
24
00
44
44
44
A8
A8
D8
88
00
00
ENDCHAR

STARTCHAR wcircumflex
ENCODING 373
SWIDTH 480 0
DWIDTH 6 0
BBX 6 13 0 -2
BITMAP
00
00
18
24
00
44
44
54
A8
A8
50
00
00
ENDCHAR

STARTCHAR Ycircumflex
ENCODING 374
SWIDTH 480 0
DWIDTH 6 0
BBX 6 13 0 -2
BITMAP
00
18
24
00
44
28
28
10
20
20
20
00
00
ENDCHAR

STARTCHAR ycircumflex
ENCODING 375
SWIDTH 480 0
DWIDTH 6 0
BBX 6 13 0 -2
BITMAP
00
00
18
24
00
44
44
88
98
68
08
90
60
ENDCHAR

STARTCHAR Ydieresis
ENCODING 376
SWIDTH 480 0
DWIDTH 6 0
BBX 6 13 0 -2
BITMAP
00
28
28
00
44
28
28
10
20
20
20
00
00
ENDCHAR

STARTCHAR Zacute
ENCODING 377
SWIDTH 480 0
DWIDTH 6 0
BBX 6 13 0 -2
BITMAP
00
08
10
00
7C
04
08
30
40
80
F8
00
00
ENDCHAR

STARTCHAR zacute
ENCODING 378
SWIDTH 480 0
DWIDTH 6 0
BBX 6 13 0 -2
BITMAP
00
00
08
10
00
7C
08
30
40
80
F8
00
00
ENDCHAR

STARTCHAR Zdotaccent
ENCODING 379
SWIDTH 480 0
DWIDTH 6 0
BBX 6 13 0 -2
BITMAP
00
10
10
00
7C
04
08
30
40
80
F8
00
00
ENDCHAR

STARTCHAR zdotaccent
ENCODING 380
SWIDTH 480 0
DWIDTH 6 0
BBX 6 13 0 -2
BITMAP
00
00
10
10
00
7C
08
30
40
80
F8
00
00
ENDCHAR

STARTCHAR Zcaron
ENCODING 381
SWIDTH 480 0
DWIDTH 6 0
BBX 6 13 0 -2
BITMAP
00
24
18
00
7C
04
08
30
40
80
F8
00
00
ENDCHAR

STARTCHAR zcaron
ENCODING 382
SWIDTH 480 0
DWIDTH 6 0
BBX 6 13 0 -2
BITMAP
00
00
24
18
00
7C
08
30
40
80
F8
00
00
ENDCHAR

STARTCHAR longs
ENCODING 383
SWIDTH 480 0
DWIDTH 6 0
BBX 6 13 0 -2
BITMAP
00
00
18
24
20
20
60
20
40
40
40
00
00
ENDCHAR

STARTCHAR uni018F
ENCODING 399
SWIDTH 480 0
DWIDTH 6 0
BBX 6 13 0 -2
BITMAP
00
00
38
44
04
04
78
88
88
88
70
00
00
ENDCHAR

STARTCHAR uni0191
ENCODING 401
SWIDTH 480 0
DWIDTH 6 0
BBX 6 13 0 -2
BITMAP
00
00
38
20
20
20
38
40
40
40
40
40
80
ENDCHAR

STARTCHAR florin
ENCODING 402
SWIDTH 480 0
DWIDTH 6 0
BBX 6 13 0 -2
BITMAP
00
00
10
28
20
20
70
20
40
40
40
40
80
ENDCHAR

STARTCHAR Aringacute
ENCODING 506
SWIDTH 480 0
DWIDTH 6 0
BBX 6 13 0 -2
BITMAP
08
10
00
10
28
10
30
48
88
F8
88
00
00
ENDCHAR

STARTCHAR aringacute
ENCODING 507
SWIDTH 480 0
DWIDTH 6 0
BBX 6 13 0 -2
BITMAP
08
10
18
24
18
38
04
7C
88
98
68
00
00
ENDCHAR

STARTCHAR AEacute
ENCODING 508
SWIDTH 480 0
DWIDTH 6 0
BBX 6 13 0 -2
BITMAP
00
08
10
00
2C
50
50
78
A0
A0
B8
00
00
ENDCHAR

STARTCHAR aeacute
ENCODING 509
SWIDTH 480 0
DWIDTH 6 0
BBX 6 13 0 -2
BITMAP
00
00
08
10
00
38
14
78
A0
A8
50
00
00
ENDCHAR

STARTCHAR Oslashacute
ENCODING 510
SWIDTH 480 0
DWIDTH 6 0
BBX 6 13 0 -2
BITMAP
00
08
10
04
38
4C
54
54
A8
C8
70
80
00
ENDCHAR

STARTCHAR oslashacute
ENCODING 511
SWIDTH 480 0
DWIDTH 6 0
BBX 6 13 0 -2
BITMAP
00
00
08
10
04
38
4C
54
A8
C8
70
80
00
ENDCHAR

STARTCHAR uni0200
ENCODING 512
SWIDTH 480 0
DWIDTH 6 0
BBX 6 13 0 -2
BITMAP
00
48
24
00
10
28
44
44
F8
88
88
00
00
ENDCHAR

STARTCHAR uni0201
ENCODING 513
SWIDTH 480 0
DWIDTH 6 0
BBX 6 13 0 -2
BITMAP
00
00
48
24
00
38
04
7C
88
98
68
00
00
ENDCHAR

STARTCHAR uni0202
ENCODING 514
SWIDTH 480 0
DWIDTH 6 0
BBX 6 13 0 -2
BITMAP
00
38
44
00
10
28
44
44
F8
88
88
00
00
ENDCHAR

STARTCHAR uni0203
ENCODING 515
SWIDTH 480 0
DWIDTH 6 0
BBX 6 13 0 -2
BITMAP
00
00
38
44
00
38
04
7C
88
98
68
00
00
ENDCHAR

STARTCHAR uni0204
ENCODING 516
SWIDTH 480 0
DWIDTH 6 0
BBX 6 13 0 -2
BITMAP
00
48
24
00
7C
40
40
70
80
80
F8
00
00
ENDCHAR

STARTCHAR uni0205
ENCODING 517
SWIDTH 480 0
DWIDTH 6 0
BBX 6 13 0 -2
BITMAP
00
00
48
24
00
38
44
78
80
88
70
00
00
ENDCHAR

STARTCHAR uni0206
ENCODING 518
SWIDTH 480 0
DWIDTH 6 0
BBX 6 13 0 -2
BITMAP
00
38
44
00
7C
40
40
70
80
80
F8
00
00
ENDCHAR

STARTCHAR uni0207
ENCODING 519
SWIDTH 480 0
DWIDTH 6 0
BBX 6 13 0 -2
BITMAP
00
00
38
44
00
38
44
78
80
88
70
00
00
ENDCHAR

STARTCHAR uni0208
ENCODING 520
SWIDTH 480 0
DWIDTH 6 0
BBX 6 13 0 -2
BITMAP
00
48
24
00
38
10
10
20
20
20
70
00
00
ENDCHAR

STARTCHAR uni0209
ENCODING 521
SWIDTH 480 0
DWIDTH 6 0
BBX 6 13 0 -2
BITMAP
00
00
48
24
00
30
10
10
20
20
70
00
00
ENDCHAR

STARTCHAR uni020A
ENCODING 522
SWIDTH 480 0
DWIDTH 6 0
BBX 6 13 0 -2
BITMAP
00
38
44
00
38
10
10
20
20
20
70
00
00
ENDCHAR

STARTCHAR uni020B
ENCODING 523
SWIDTH 480 0
DWIDTH 6 0
BBX 6 13 0 -2
BITMAP
00
00
38
44
00
30
10
10
20
20
70
00
00
ENDCHAR

STARTCHAR uni020C
ENCODING 524
SWIDTH 480 0
DWIDTH 6 0
BBX 6 13 0 -2
BITMAP
00
48
24
00
38
44
44
88
88
88
70
00
00
ENDCHAR

STARTCHAR uni020D
ENCODING 525
SWIDTH 480 0
DWIDTH 6 0
BBX 6 13 0 -2
BITMAP
00
00
48
24
00
38
44
44
88
88
70
00
00
ENDCHAR

STARTCHAR uni020E
ENCODING 526
SWIDTH 480 0
DWIDTH 6 0
BBX 6 13 0 -2
BITMAP
00
38
44
00
38
44
44
88
88
88
70
00
00
ENDCHAR

STARTCHAR uni020F
ENCODING 527
SWIDTH 480 0
DWIDTH 6 0
BBX 6 13 0 -2
BITMAP
00
00
38
44
00
38
44
44
88
88
70
00
00
ENDCHAR

STARTCHAR uni0210
ENCODING 528
SWIDTH 480 0
DWIDTH 6 0
BBX 6 13 0 -2
BITMAP
00
48
24
00
78
44
44
78
90
88
88
00
00
ENDCHAR

STARTCHAR uni0211
ENCODING 529
SWIDTH 480 0
DWIDTH 6 0
BBX 6 13 0 -2
BITMAP
00
00
48
24
00
58
64
40
80
80
80
00
00
ENDCHAR

STARTCHAR uni0212
ENCODING 530
SWIDTH 480 0
DWIDTH 6 0
BBX 6 13 0 -2
BITMAP
00
38
44
00
78
44
44
78
90
88
88
00
00
ENDCHAR

STARTCHAR uni0213
ENCODING 531
SWIDTH 480 0
DWIDTH 6 0
BBX 6 13 0 -2
BITMAP
00
00
38
44
00
58
64
40
80
80
80
00
00
ENDCHAR

STARTCHAR uni0214
ENCODING 532
SWIDTH 480 0
DWIDTH 6 0
BBX 6 13 0 -2
BITMAP
00
48
24
00
44
44
44
88
88
88
70
00
00
ENDCHAR

STARTCHAR uni0215
ENCODING 533
SWIDTH 480 0
DWIDTH 6 0
BBX 6 13 0 -2
BITMAP
00
00
48
24
00
44
44
44
88
98
68
00
00
ENDCHAR

STARTCHAR uni0216
ENCODING 534
SWIDTH 480 0
DWIDTH 6 0
BBX 6 13 0 -2
BITMAP
00
38
44
00
44
44
44
88
88
88
70
00
00
ENDCHAR

STARTCHAR uni0217
ENCODING 535
SWIDTH 480 0
DWIDTH 6 0
BBX 6 13 0 -2
BITMAP
00
00
38
44
00
44
44
44
88
98
68
00
00
ENDCHAR

STARTCHAR Scommaaccent
ENCODING 536
SWIDTH 480 0
DWIDTH 6 0
BBX 6 13 0 -2
BITMAP
00
00
38
44
40
40
30
08
08
88
70
20
40
ENDCHAR

STARTCHAR scommaaccent
ENCODING 537
SWIDTH 480 0
DWIDTH 6 0
BBX 6 13 0 -2
BITMAP
00
00
00
00
00
38
44
20
10
88
70
20
40
ENDCHAR

STARTCHAR Tcommaaccent
ENCODING 538
SWIDTH 480 0
DWIDTH 6 0
BBX 6 13 0 -2
BITMAP
00
00
7C
10
10
10
10
20
20
20
20
10
20
ENDCHAR

STARTCHAR tcommaaccent
ENCODING 539
SWIDTH 480 0
DWIDTH 6 0
BBX 6 13 0 -2
BITMAP
00
00
00
20
20
78
20
40
40
48
30
10
20
ENDCHAR

STARTCHAR uni0259
ENCODING 601
SWIDTH 480 0
DWIDTH 6 0
BBX 6 13 0 -2
BITMAP
00
00
00
00
00
38
44
04
F8
88
70
00
00
ENDCHAR

STARTCHAR uni02C4
ENCODING 708
SWIDTH 480 0
DWIDTH 6 0
BBX 6 13 0 -2
BITMAP
00
10
28
44
00
00
00
00
00
00
00
00
00
ENDCHAR

STARTCHAR uni02C5
ENCODING 709
SWIDTH 480 0
DWIDTH 6 0
BBX 6 13 0 -2
BITMAP
00
44
28
10
00
00
00
00
00
00
00
00
00
ENDCHAR

STARTCHAR circumflex
ENCODING 710
SWIDTH 480 0
DWIDTH 6 0
BBX 6 13 0 -2
BITMAP
00
30
48
00
00
00
00
00
00
00
00
00
00
ENDCHAR

STARTCHAR caron
ENCODING 711
SWIDTH 480 0
DWIDTH 6 0
BBX 6 13 0 -2
BITMAP
00
48
30
00
00
00
00
00
00
00
00
00
00
ENDCHAR

STARTCHAR macron
ENCODING 713
SWIDTH 480 0
DWIDTH 6 0
BBX 6 13 0 -2
BITMAP
00
00
7C
00
00
00
00
00
00
00
00
00
00
ENDCHAR

STARTCHAR breve
ENCODING 728
SWIDTH 480 0
DWIDTH 6 0
BBX 6 13 0 -2
BITMAP
00
44
38
00
00
00
00
00
00
00
00
00
00
ENDCHAR

STARTCHAR dotaccent
ENCODING 729
SWIDTH 480 0
DWIDTH 6 0
BBX 6 13 0 -2
BITMAP
00
10
10
00
00
00
00
00
00
00
00
00
00
ENDCHAR

STARTCHAR ring
ENCODING 730
SWIDTH 480 0
DWIDTH 6 0
BBX 6 13 0 -2
BITMAP
00
10
28
10
00
00
00
00
00
00
00
00
00
ENDCHAR

STARTCHAR ogonek
ENCODING 731
SWIDTH 480 0
DWIDTH 6 0
BBX 6 13 0 -2
BITMAP
00
00
00
00
00
00
00
00
00
00
00
20
10
ENDCHAR

STARTCHAR tilde
ENCODING 732
SWIDTH 480 0
DWIDTH 6 0
BBX 6 13 0 -2
BITMAP
00
28
50
00
00
00
00
00
00
00
00
00
00
ENDCHAR

STARTCHAR hungarumlaut
ENCODING 733
SWIDTH 480 0
DWIDTH 6 0
BBX 6 13 0 -2
BITMAP
00
24
48
00
00
00
00
00
00
00
00
00
00
ENDCHAR

STARTCHAR gravecomb
ENCODING 768
SWIDTH 480 0
DWIDTH 6 0
BBX 6 13 0 -2
BITMAP
00
10
08
00
00
00
00
00
00
00
00
00
00
ENDCHAR

STARTCHAR acutecomb
ENCODING 769
SWIDTH 480 0
DWIDTH 6 0
BBX 6 13 0 -2
BITMAP
00
08
10
00
00
00
00
00
00
00
00
00
00
ENDCHAR

STARTCHAR uni0302
ENCODING 770
SWIDTH 480 0
DWIDTH 6 0
BBX 6 13 0 -2
BITMAP
00
18
24
00
00
00
00
00
00
00
00
00
00
ENDCHAR

STARTCHAR tildecomb
ENCODING 771
SWIDTH 480 0
DWIDTH 6 0
BBX 6 13 0 -2
BITMAP
00
14
28
00
00
00
00
00
00
00
00
00
00
ENDCHAR

STARTCHAR uni0304
ENCODING 772
SWIDTH 480 0
DWIDTH 6 0
BBX 6 13 0 -2
BITMAP
00
00
7C
00
00
00
00
00
00
00
00
00
00
ENDCHAR

STARTCHAR uni0305
ENCODING 773
SWIDTH 480 0
DWIDTH 6 0
BBX 6 13 0 -2
BITMAP
00
00
FC
00
00
00
00
00
00
00
00
00
00
ENDCHAR

STARTCHAR uni0306
ENCODING 774
SWIDTH 480 0
DWIDTH 6 0
BBX 6 13 0 -2
BITMAP
00
44
38
00
00
00
00
00
00
00
00
00
00
ENDCHAR

STARTCHAR uni0307
ENCODING 775
SWIDTH 480 0
DWIDTH 6 0
BBX 6 13 0 -2
BITMAP
00
10
10
00
00
00
00
00
00
00
00
00
00
ENDCHAR

STARTCHAR uni0308
ENCODING 776
SWIDTH 480 0
DWIDTH 6 0
BBX 6 13 0 -2
BITMAP
00
28
28
00
00
00
00
00
00
00
00
00
00
ENDCHAR

STARTCHAR hookabovecomb
ENCODING 777
SWIDTH 480 0
DWIDTH 6 0
BBX 6 13 0 -2
BITMAP
10
28
08
10
10
00
00
00
00
00
00
00
00
ENDCHAR

STARTCHAR uni030A
ENCODING 778
SWIDTH 480 0
DWIDTH 6 0
BBX 6 13 0 -2
BITMAP
10
28
10
00
00
00
00
00
00
00
00
00
00
ENDCHAR

STARTCHAR uni030B
ENCODING 779
SWIDTH 480 0
DWIDTH 6 0
BBX 6 13 0 -2
BITMAP
00
24
48
00
00
00
00
00
00
00
00
00
00
ENDCHAR

STARTCHAR uni030C
ENCODING 780
SWIDTH 480 0
DWIDTH 6 0
BBX 6 13 0 -2
BITMAP
00
24
18
00
00
00
00
00
00
00
00
00
00
ENDCHAR

STARTCHAR uni030D
ENCODING 781
SWIDTH 480 0
DWIDTH 6 0
BBX 6 13 0 -2
BITMAP
00
10
10
10
00
00
00
00
00
00
00
00
00
ENDCHAR

STARTCHAR uni030E
ENCODING 782
SWIDTH 480 0
DWIDTH 6 0
BBX 6 13 0 -2
BITMAP
00
28
28
28
00
00
00
00
00
00
00
00
00
ENDCHAR

STARTCHAR uni030F
ENCODING 783
SWIDTH 480 0
DWIDTH 6 0
BBX 6 13 0 -2
BITMAP
00
48
24
00
00
00
00
00
00
00
00
00
00
ENDCHAR

STARTCHAR uni0310
ENCODING 784
SWIDTH 480 0
DWIDTH 6 0
BBX 6 13 0 -2
BITMAP
10
10
44
38
00
00
00
00
00
00
00
00
00
ENDCHAR

STARTCHAR uni0311
ENCODING 785
SWIDTH 480 0
DWIDTH 6 0
BBX 6 13 0 -2
BITMAP
00
38
44
00
00
00
00
00
00
00
00
00
00
ENDCHAR

STARTCHAR uni0312
ENCODING 786
SWIDTH 480 0
DWIDTH 6 0
BBX 6 13 0 -2
BITMAP
00
08
10
30
00
00
00
00
00
00
00
00
00
ENDCHAR

STARTCHAR uni0313
ENCODING 787
SWIDTH 480 0
DWIDTH 6 0
BBX 6 13 0 -2
BITMAP
00
18
10
20
00
00
00
00
00
00
00
00
00
ENDCHAR

STARTCHAR uni0314
ENCODING 788
SWIDTH 480 0
DWIDTH 6 0
BBX 6 13 0 -2
BITMAP
00
30
10
08
00
00
00
00
00
00
00
00
00
ENDCHAR

STARTCHAR uni0315
ENCODING 789
SWIDTH 480 0
DWIDTH 6 0
BBX 6 13 0 -2
BITMAP
00
0C
08
10
00
00
00
00
00
00
00
00
00
ENDCHAR

STARTCHAR uni0316
ENCODING 790
SWIDTH 480 0
DWIDTH 6 0
BBX 6 13 0 -2
BITMAP
00
00
00
00
00
00
00
00
00
00
00
20
10
ENDCHAR

STARTCHAR uni0317
ENCODING 791
SWIDTH 480 0
DWIDTH 6 0
BBX 6 13 0 -2
BITMAP
00
00
00
00
00
00
00
00
00
00
00
10
20
ENDCHAR

STARTCHAR uni0318
ENCODING 792
SWIDTH 480 0
DWIDTH 6 0
BBX 6 13 0 -2
BITMAP
00
00
00
00
00
00
00
00
00
00
10
30
10
ENDCHAR

STARTCHAR uni0319
ENCODING 793
SWIDTH 480 0
DWIDTH 6 0
BBX 6 13 0 -2
BITMAP
00
00
00
00
00
00
00
00
00
00
20
30
20
ENDCHAR

STARTCHAR uni0374
ENCODING 884
SWIDTH 480 0
DWIDTH 6 0
BBX 6 13 0 -2
BITMAP
00
00
10
20
00
00
00
00
00
00
00
00
00
ENDCHAR

STARTCHAR uni0375
ENCODING 885
SWIDTH 480 0
DWIDTH 6 0
BBX 6 13 0 -2
BITMAP
00
00
00
00
00
00
00
00
00
00
00
10
20
ENDCHAR

STARTCHAR uni037A
ENCODING 890
SWIDTH 480 0
DWIDTH 6 0
BBX 6 13 0 -2
BITMAP
00
00
00
00
00
00
00
00
00
00
00
20
30
ENDCHAR

STARTCHAR uni037E
ENCODING 894
SWIDTH 480 0
DWIDTH 6 0
BBX 6 13 0 -2
BITMAP
00
00
00
00
10
38
10
00
00
30
20
40
00
ENDCHAR

STARTCHAR tonos
ENCODING 900
SWIDTH 480 0
DWIDTH 6 0
BBX 6 13 0 -2
BITMAP
00
00
08
10
00
00
00
00
00
00
00
00
00
ENDCHAR

STARTCHAR dieresistonos
ENCODING 901
SWIDTH 480 0
DWIDTH 6 0
BBX 6 13 0 -2
BITMAP
00
08
10
6C
00
00
00
00
00
00
00
00
00
ENDCHAR

STARTCHAR Alphatonos
ENCODING 902
SWIDTH 480 0
DWIDTH 6 0
BBX 6 13 0 -2
BITMAP
00
00
28
54
14
14
14
38
28
28
28
00
00
ENDCHAR

STARTCHAR anoteleia
ENCODING 903
SWIDTH 480 0
DWIDTH 6 0
BBX 6 13 0 -2
BITMAP
00
00
00
00
00
10
38
10
00
00
00
00
00
ENDCHAR

STARTCHAR Epsilontonos
ENCODING 904
SWIDTH 480 0
DWIDTH 6 0
BBX 6 13 0 -2
BITMAP
00
00
3C
50
10
10
18
20
20
20
38
00
00
ENDCHAR

STARTCHAR Etatonos
ENCODING 905
SWIDTH 480 0
DWIDTH 6 0
BBX 6 13 0 -2
BITMAP
00
00
34
54
14
14
1C
28
28
28
28
00
00
ENDCHAR

STARTCHAR Iotatonos
ENCODING 906
SWIDTH 480 0
DWIDTH 6 0
BBX 6 13 0 -2
BITMAP
00
00
3C
48
08
08
08
10
10
10
38
00
00
ENDCHAR

STARTCHAR Omicrontonos
ENCODING 908
SWIDTH 480 0
DWIDTH 6 0
BBX 6 13 0 -2
BITMAP
00
00
28
54
14
14
14
28
28
28
10
00
00
ENDCHAR

STARTCHAR Upsilontonos
ENCODING 910
SWIDTH 480 0
DWIDTH 6 0
BBX 6 13 0 -2
BITMAP
00
00
34
54
14
14
08
08
10
10
10
00
00
ENDCHAR

STARTCHAR Omegatonos
ENCODING 911
SWIDTH 480 0
DWIDTH 6 0
BBX 6 13 0 -2
BITMAP
00
00
58
A4
24
24
48
48
30
30
48
00
00
ENDCHAR

STARTCHAR iotadieresistonos
ENCODING 912
SWIDTH 480 0
DWIDTH 6 0
BBX 6 13 0 -2
BITMAP
00
08
10
6C
00
10
10
10
20
28
10
00
00
ENDCHAR

STARTCHAR Alpha
ENCODING 913
SWIDTH 480 0
DWIDTH 6 0
BBX 6 13 0 -2
BITMAP
00
00
10
28
44
44
44
F8
88
88
88
00
00
ENDCHAR

STARTCHAR Beta
ENCODING 914
SWIDTH 480 0
DWIDTH 6 0
BBX 6 13 0 -2
BITMAP
00
00
78
44
44
44
78
88
88
88
F0
00
00
ENDCHAR

STARTCHAR Gamma
ENCODING 915
SWIDTH 480 0
DWIDTH 6 0
BBX 6 13 0 -2
BITMAP
00
00
7C
40
40
40
40
80
80
80
80
00
00
ENDCHAR

STARTCHAR Delta
ENCODING 916
SWIDTH 480 0
DWIDTH 6 0
BBX 6 13 0 -2
BITMAP
00
00
08
18
18
28
28
48
48
88
F8
00
00
ENDCHAR

STARTCHAR Epsilon
ENCODING 917
SWIDTH 480 0
DWIDTH 6 0
BBX 6 13 0 -2
BITMAP
00
00
7C
40
40
40
78
80
80
80
F8
00
00
ENDCHAR

STARTCHAR Zeta
ENCODING 918
SWIDTH 480 0
DWIDTH 6 0
BBX 6 13 0 -2
BITMAP
00
00
7C
04
08
10
10
20
40
80
F8
00
00
ENDCHAR

STARTCHAR Eta
ENCODING 919
SWIDTH 480 0
DWIDTH 6 0
BBX 6 13 0 -2
BITMAP
00
00
44
44
44
44
7C
88
88
88
88
00
00
ENDCHAR

STARTCHAR Theta
ENCODING 920
SWIDTH 480 0
DWIDTH 6 0
BBX 6 13 0 -2
BITMAP
00
00
38
44
44
44
7C
88
88
88
70
00
00
ENDCHAR

STARTCHAR Iota
ENCODING 921
SWIDTH 480 0
DWIDTH 6 0
BBX 6 13 0 -2
BITMAP
00
00
38
10
10
10
10
20
20
20
70
00
00
ENDCHAR

STARTCHAR Kappa
ENCODING 922
SWIDTH 480 0
DWIDTH 6 0
BBX 6 13 0 -2
BITMAP
00
00
44
44
48
50
60
90
90
88
88
00
00
ENDCHAR

STARTCHAR Lambda
ENCODING 923
SWIDTH 480 0
DWIDTH 6 0
BBX 6 13 0 -2
BITMAP
00
00
08
18
18
28
28
48
48
88
88
00
00
ENDCHAR

STARTCHAR Mu
ENCODING 924
SWIDTH 480 0
DWIDTH 6 0
BBX 6 13 0 -2
BITMAP
00
00
44
44
6C
54
54
88
88
88
88
00
00
ENDCHAR

STARTCHAR Nu
ENCODING 925
SWIDTH 480 0
DWIDTH 6 0
BBX 6 13 0 -2
BITMAP
00
00
44
64
64
54
54
88
88
88
88
00
00
ENDCHAR

STARTCHAR Xi
ENCODING 926
SWIDTH 480 0
DWIDTH 6 0
BBX 6 13 0 -2
BITMAP
00
00
7C
00
00
00
70
00
00
00
F8
00
00
ENDCHAR

STARTCHAR Omicron
ENCODING 927
SWIDTH 480 0
DWIDTH 6 0
BBX 6 13 0 -2
BITMAP
00
00
38
44
44
44
44
88
88
88
70
00
00
ENDCHAR

STARTCHAR Pi
ENCODING 928
SWIDTH 480 0
DWIDTH 6 0
BBX 6 13 0 -2
BITMAP
00
00
7C
44
44
44
44
88
88
88
88
00
00
ENDCHAR

STARTCHAR Rho
ENCODING 929
SWIDTH 480 0
DWIDTH 6 0
BBX 6 13 0 -2
BITMAP
00
00
78
44
44
44
78
80
80
80
80
00
00
ENDCHAR

STARTCHAR Sigma
ENCODING 931
SWIDTH 480 0
DWIDTH 6 0
BBX 6 13 0 -2
BITMAP
00
00
7C
40
20
10
08
30
40
80
F8
00
00
ENDCHAR

STARTCHAR Tau
ENCODING 932
SWIDTH 480 0
DWIDTH 6 0
BBX 6 13 0 -2
BITMAP
00
00
7C
10
10
10
10
20
20
20
20
00
00
ENDCHAR

STARTCHAR Upsilon
ENCODING 933
SWIDTH 480 0
DWIDTH 6 0
BBX 6 13 0 -2
BITMAP
00
00
44
44
28
28
10
10
20
20
20
00
00
ENDCHAR

STARTCHAR Phi
ENCODING 934
SWIDTH 480 0
DWIDTH 6 0
BBX 6 13 0 -2
BITMAP
00
00
10
38
54
54
A8
A8
70
20
20
00
00
ENDCHAR

STARTCHAR Chi
ENCODING 935
SWIDTH 480 0
DWIDTH 6 0
BBX 6 13 0 -2
BITMAP
00
00
44
44
28
28
10
20
50
88
88
00
00
ENDCHAR

STARTCHAR Psi
ENCODING 936
SWIDTH 480 0
DWIDTH 6 0
BBX 6 13 0 -2
BITMAP
00
00
54
54
54
A8
A8
70
20
40
40
00
00
ENDCHAR

STARTCHAR Omega
ENCODING 937
SWIDTH 480 0
DWIDTH 6 0
BBX 6 13 0 -2
BITMAP
00
00
38
44
84
84
84
88
50
50
D8
00
00
ENDCHAR

STARTCHAR Iotadieresis
ENCODING 938
SWIDTH 480 0
DWIDTH 6 0
BBX 6 13 0 -2
BITMAP
00
6C
00
38
10
10
10
20
20
20
70
00
00
ENDCHAR

STARTCHAR Upsilondieresis
ENCODING 939
SWIDTH 480 0
DWIDTH 6 0
BBX 6 13 0 -2
BITMAP
00
6C
00
44
28
28
10
10
20
20
20
00
00
ENDCHAR

STARTCHAR alphatonos
ENCODING 940
SWIDTH 480 0
DWIDTH 6 0
BBX 6 13 0 -2
BITMAP
00
00
08
10
00
38
44
44
88
98
68
00
00
ENDCHAR

STARTCHAR epsilontonos
ENCODING 941
SWIDTH 480 0
DWIDTH 6 0
BBX 6 13 0 -2
BITMAP
00
00
08
10
00
38
44
70
80
88
70
00
00
ENDCHAR

STARTCHAR etatonos
ENCODING 942
SWIDTH 480 0
DWIDTH 6 0
BBX 6 13 0 -2
BITMAP
00
00
08
10
00
58
64
44
88
88
88
10
10
ENDCHAR

STARTCHAR iotatonos
ENCODING 943
SWIDTH 480 0
DWIDTH 6 0
BBX 6 13 0 -2
BITMAP
00
00
10
20
00
20
20
20
40
50
20
00
00
ENDCHAR

STARTCHAR upsilondieresistonos
ENCODING 944
SWIDTH 480 0
DWIDTH 6 0
BBX 6 13 0 -2
BITMAP
00
08
10
6C
00
44
44
44
88
88
70
00
00
ENDCHAR

STARTCHAR alpha
ENCODING 945
SWIDTH 480 0
DWIDTH 6 0
BBX 6 13 0 -2
BITMAP
00
00
00
00
00
38
44
44
88
98
68
00
00
ENDCHAR

STARTCHAR beta
ENCODING 946
SWIDTH 480 0
DWIDTH 6 0
BBX 6 13 0 -2
BITMAP
00
00
30
48
48
78
44
84
88
C8
B0
80
80
ENDCHAR

STARTCHAR gamma
ENCODING 947
SWIDTH 480 0
DWIDTH 6 0
BBX 6 13 0 -2
BITMAP
00
00
00
00
00
44
44
44
48
50
20
20
20
ENDCHAR

STARTCHAR delta
ENCODING 948
SWIDTH 480 0
DWIDTH 6 0
BBX 6 13 0 -2
BITMAP
00
00
38
44
20
38
44
44
88
88
70
00
00
ENDCHAR

STARTCHAR epsilon
ENCODING 949
SWIDTH 480 0
DWIDTH 6 0
BBX 6 13 0 -2
BITMAP
00
00
00
00
00
38
44
70
80
88
70
00
00
ENDCHAR

STARTCHAR zeta
ENCODING 950
SWIDTH 480 0
DWIDTH 6 0
BBX 6 13 0 -2
BITMAP
00
00
7C
10
20
20
40
40
80
80
70
08
10
ENDCHAR

STARTCHAR eta
ENCODING 951
SWIDTH 480 0
DWIDTH 6 0
BBX 6 13 0 -2
BITMAP
00
00
00
00
00
58
64
44
88
88
88
10
10
ENDCHAR

STARTCHAR theta
ENCODING 952
SWIDTH 480 0
DWIDTH 6 0
BBX 6 13 0 -2
BITMAP
00
00
30
48
48
48
78
90
90
90
60
00
00
ENDCHAR

STARTCHAR iota
ENCODING 953
SWIDTH 480 0
DWIDTH 6 0
BBX 6 13 0 -2
BITMAP
00
00
00
00
00
20
20
20
40
50
20
00
00
ENDCHAR

STARTCHAR kappa
ENCODING 954
SWIDTH 480 0
DWIDTH 6 0
BBX 6 13 0 -2
BITMAP
00
00
00
00
00
44
48
50
60
90
88
00
00
ENDCHAR

STARTCHAR lambda
ENCODING 955
SWIDTH 480 0
DWIDTH 6 0
BBX 6 13 0 -2
BITMAP
00
00
38
44
04
34
4C
44
88
88
88
00
00
ENDCHAR

STARTCHAR mu
ENCODING 956
SWIDTH 480 0
DWIDTH 6 0
BBX 6 13 0 -2
BITMAP
00
00
00
00
00
44
44
44
48
58
A8
80
80
ENDCHAR

STARTCHAR nu
ENCODING 957
SWIDTH 480 0
DWIDTH 6 0
BBX 6 13 0 -2
BITMAP
00
00
00
00
00
44
44
44
48
50
20
00
00
ENDCHAR

STARTCHAR xi
ENCODING 958
SWIDTH 480 0
DWIDTH 6 0
BBX 6 13 0 -2
BITMAP
00
00
7C
10
20
20
18
60
80
80
70
08
10
ENDCHAR

STARTCHAR omicron
ENCODING 959
SWIDTH 480 0
DWIDTH 6 0
BBX 6 13 0 -2
BITMAP
00
00
00
00
00
38
44
44
88
88
70
00
00
ENDCHAR

STARTCHAR pi
ENCODING 960
SWIDTH 480 0
DWIDTH 6 0
BBX 6 13 0 -2
BITMAP
00
00
00
00
00
7C
28
28
50
50
50
00
00
ENDCHAR

STARTCHAR rho
ENCODING 961
SWIDTH 480 0
DWIDTH 6 0
BBX 6 13 0 -2
BITMAP
00
00
00
00
00
38
44
44
88
88
F0
80
80
ENDCHAR

STARTCHAR sigma1
ENCODING 962
SWIDTH 480 0
DWIDTH 6 0
BBX 6 13 0 -2
BITMAP
00
00
00
00
00
38
44
40
80
80
70
08
30
ENDCHAR

STARTCHAR sigma
ENCODING 963
SWIDTH 480 0
DWIDTH 6 0
BBX 6 13 0 -2
BITMAP
00
00
00
00
00
3C
48
44
88
88
70
00
00
ENDCHAR

STARTCHAR tau
ENCODING 964
SWIDTH 480 0
DWIDTH 6 0
BBX 6 13 0 -2
BITMAP
00
00
00
00
00
7C
10
10
20
20
10
00
00
ENDCHAR

STARTCHAR upsilon
ENCODING 965
SWIDTH 480 0
DWIDTH 6 0
BBX 6 13 0 -2
BITMAP
00
00
00
00
00
44
44
44
88
88
70
00
00
ENDCHAR

STARTCHAR phi
ENCODING 966
SWIDTH 480 0
DWIDTH 6 0
BBX 6 13 0 -2
BITMAP
00
00
00
00
00
58
54
94
A8
A8
70
20
20
ENDCHAR

STARTCHAR chi
ENCODING 967
SWIDTH 480 0
DWIDTH 6 0
BBX 6 13 0 -2
BITMAP
00
00
00
00
00
44
28
28
30
20
50
50
88
ENDCHAR

STARTCHAR psi
ENCODING 968
SWIDTH 480 0
DWIDTH 6 0
BBX 6 13 0 -2
BITMAP
00
00
00
00
00
54
54
54
A8
A8
70
20
40
ENDCHAR

STARTCHAR omega
ENCODING 969
SWIDTH 480 0
DWIDTH 6 0
BBX 6 13 0 -2
BITMAP
00
00
00
00
00
44
54
A8
A8
A8
50
00
00
ENDCHAR

STARTCHAR iotadieresis
ENCODING 970
SWIDTH 480 0
DWIDTH 6 0
BBX 6 13 0 -2
BITMAP
00
00
00
6C
00
10
10
10
20
28
10
00
00
ENDCHAR

STARTCHAR upsilondieresis
ENCODING 971
SWIDTH 480 0
DWIDTH 6 0
BBX 6 13 0 -2
BITMAP
00
00
00
6C
00
44
44
44
88
88
70
00
00
ENDCHAR

STARTCHAR omicrontonos
ENCODING 972
SWIDTH 480 0
DWIDTH 6 0
BBX 6 13 0 -2
BITMAP
00
00
08
10
00
38
44
44
88
88
70
00
00
ENDCHAR

STARTCHAR upsilontonos
ENCODING 973
SWIDTH 480 0
DWIDTH 6 0
BBX 6 13 0 -2
BITMAP
00
00
08
10
00
44
44
44
88
88
70
00
00
ENDCHAR

STARTCHAR omegatonos
ENCODING 974
SWIDTH 480 0
DWIDTH 6 0
BBX 6 13 0 -2
BITMAP
00
00
08
10
00
44
54
54
A8
A8
50
00
00
ENDCHAR

STARTCHAR theta1
ENCODING 977
SWIDTH 480 0
DWIDTH 6 0
BBX 6 13 0 -2
BITMAP
00
00
30
48
48
3C
08
90
90
90
60
00
00
ENDCHAR

STARTCHAR phi1
ENCODING 981
SWIDTH 480 0
DWIDTH 6 0
BBX 6 13 0 -2
BITMAP
00
00
00
10
10
38
54
54
A8
A8
70
20
20
ENDCHAR

STARTCHAR omega1
ENCODING 982
SWIDTH 480 0
DWIDTH 6 0
BBX 6 13 0 -2
BITMAP
00
00
00
00
00
7C
44
54
A8
A8
50
00
00
ENDCHAR

STARTCHAR uni03F1
ENCODING 1009
SWIDTH 480 0
DWIDTH 6 0
BBX 6 13 0 -2
BITMAP
00
00
00
00
00
38
44
44
88
88
F0
80
78
ENDCHAR

STARTCHAR uni03F2
ENCODING 1010
SWIDTH 480 0
DWIDTH 6 0
BBX 6 13 0 -2
BITMAP
00
00
00
00
00
38
44
80
80
88
70
00
00
ENDCHAR

STARTCHAR uni03F3
ENCODING 1011
SWIDTH 480 0
DWIDTH 6 0
BBX 6 13 0 -2
BITMAP
00
00
00
08
00
18
08
08
10
10
90
90
60
ENDCHAR

STARTCHAR uni03F4
ENCODING 1012
SWIDTH 480 0
DWIDTH 6 0
BBX 6 13 0 -2
BITMAP
00
00
38
44
44
44
7C
88
88
88
70
00
00
ENDCHAR

STARTCHAR uni03F5
ENCODING 1013
SWIDTH 480 0
DWIDTH 6 0
BBX 6 13 0 -2
BITMAP
00
00
00
00
00
38
40
F0
80
80
70
00
00
ENDCHAR

STARTCHAR uni0400
ENCODING 1024
SWIDTH 480 0
DWIDTH 6 0
BBX 6 13 0 -2
BITMAP
00
20
10
00
7C
40
40
70
80
80
F8
00
00
ENDCHAR

STARTCHAR afii10023
ENCODING 1025
SWIDTH 480 0
DWIDTH 6 0
BBX 6 13 0 -2
BITMAP
00
28
28
00
7C
40
40
70
80
80
F8
00
00
ENDCHAR

STARTCHAR afii10051
ENCODING 1026
SWIDTH 480 0
DWIDTH 6 0
BBX 6 13 0 -2
BITMAP
00
00
F8
20
20
30
28
28
50
50
50
10
20
ENDCHAR

STARTCHAR afii10052
ENCODING 1027
SWIDTH 480 0
DWIDTH 6 0
BBX 6 13 0 -2
BITMAP
00
10
20
00
7C
44
40
80
80
80
80
00
00
ENDCHAR

STARTCHAR afii10053
ENCODING 1028
SWIDTH 480 0
DWIDTH 6 0
BBX 6 13 0 -2
BITMAP
00
00
1C
20
40
40
78
80
80
40
38
00
00
ENDCHAR

STARTCHAR afii10054
ENCODING 1029
SWIDTH 480 0
DWIDTH 6 0
BBX 6 13 0 -2
BITMAP
00
00
38
44
40
40
30
08
08
88
70
00
00
ENDCHAR

STARTCHAR afii10055
ENCODING 1030
SWIDTH 480 0
DWIDTH 6 0
BBX 6 13 0 -2
BITMAP
00
00
38
10
10
10
10
20
20
20
70
00
00
ENDCHAR

STARTCHAR afii10056
ENCODING 1031
SWIDTH 480 0
DWIDTH 6 0
BBX 6 13 0 -2
BITMAP
00
28
28
00
7C
10
10
20
20
20
F8
00
00
ENDCHAR

STARTCHAR afii10057
ENCODING 1032
SWIDTH 480 0
DWIDTH 6 0
BBX 6 13 0 -2
BITMAP
00
00
1C
08
08
08
08
10
10
90
60
00
00
ENDCHAR

STARTCHAR afii10058
ENCODING 1033
SWIDTH 480 0
DWIDTH 6 0
BBX 6 13 0 -2
BITMAP
00
00
30
50
50
50
58
A8
A8
A8
B0
00
00
ENDCHAR

STARTCHAR afii10059
ENCODING 1034
SWIDTH 480 0
DWIDTH 6 0
BBX 6 13 0 -2
BITMAP
00
00
50
50
50
50
70
A8
A8
A8
B0
00
00
ENDCHAR

STARTCHAR afii10060
ENCODING 1035
SWIDTH 480 0
DWIDTH 6 0
BBX 6 13 0 -2
BITMAP
00
00
F8
20
20
30
28
28
50
50
50
00
00
ENDCHAR

STARTCHAR afii10061
ENCODING 1036
SWIDTH 480 0
DWIDTH 6 0
BBX 6 13 0 -2
BITMAP
08
10
44
44
48
50
60
A0
90
88
88
00
00
ENDCHAR

STARTCHAR uni040D
ENCODING 1037
SWIDTH 480 0
DWIDTH 6 0
BBX 6 13 0 -2
BITMAP
00
20
10
00
44
44
4C
98
A8
C8
88
00
00
ENDCHAR

STARTCHAR afii10062
ENCODING 1038
SWIDTH 480 0
DWIDTH 6 0
BBX 6 13 0 -2
BITMAP
00
44
38
00
44
44
88
78
08
08
70
00
00
ENDCHAR

STARTCHAR afii10145
ENCODING 1039
SWIDTH 480 0
DWIDTH 6 0
BBX 6 13 0 -2
BITMAP
00
00
44
44
44
44
44
88
88
88
F8
20
20
ENDCHAR

STARTCHAR afii10017
ENCODING 1040
SWIDTH 480 0
DWIDTH 6 0
BBX 6 13 0 -2
BITMAP
00
00
10
28
44
44
44
F8
88
88
88
00
00
ENDCHAR

STARTCHAR afii10018
ENCODING 1041
SWIDTH 480 0
DWIDTH 6 0
BBX 6 13 0 -2
BITMAP
00
00
78
40
40
40
70
88
88
88
F0
00
00
ENDCHAR

STARTCHAR afii10019
ENCODING 1042
SWIDTH 480 0
DWIDTH 6 0
BBX 6 13 0 -2
BITMAP
00
00
78
44
44
44
78
88
88
88
F0
00
00
ENDCHAR

STARTCHAR afii10020
ENCODING 1043
SWIDTH 480 0
DWIDTH 6 0
BBX 6 13 0 -2
BITMAP
00
00
7C
44
40
40
40
80
80
80
80
00
00
ENDCHAR

STARTCHAR afii10021
ENCODING 1044
SWIDTH 480 0
DWIDTH 6 0
BBX 6 13 0 -2
BITMAP
00
00
18
28
28
28
28
50
50
50
F8
88
00
ENDCHAR

STARTCHAR afii10022
ENCODING 1045
SWIDTH 480 0
DWIDTH 6 0
BBX 6 13 0 -2
BITMAP
00
00
7C
40
40
40
78
80
80
80
F8
00
00
ENDCHAR

STARTCHAR afii10024
ENCODING 1046
SWIDTH 480 0
DWIDTH 6 0
BBX 6 13 0 -2
BITMAP
00
00
54
54
54
38
10
70
A8
A8
A8
00
00
ENDCHAR

STARTCHAR afii10025
ENCODING 1047
SWIDTH 480 0
DWIDTH 6 0
BBX 6 13 0 -2
BITMAP
00
00
38
44
04
04
18
08
08
88
70
00
00
ENDCHAR

STARTCHAR afii10026
ENCODING 1048
SWIDTH 480 0
DWIDTH 6 0
BBX 6 13 0 -2
BITMAP
00
00
44
44
4C
4C
54
A8
C8
C8
88
00
00
ENDCHAR

STARTCHAR afii10027
ENCODING 1049
SWIDTH 480 0
DWIDTH 6 0
BBX 6 13 0 -2
BITMAP
00
44
38
00
44
44
4C
98
A8
C8
88
00
00
ENDCHAR

STARTCHAR afii10028
ENCODING 1050
SWIDTH 480 0
DWIDTH 6 0
BBX 6 13 0 -2
BITMAP
00
00
44
44
48
50
60
A0
90
88
88
00
00
ENDCHAR

STARTCHAR afii10029
ENCODING 1051
SWIDTH 480 0
DWIDTH 6 0
BBX 6 13 0 -2
BITMAP
00
00
1C
24
24
24
24
48
48
88
88
00
00
ENDCHAR

STARTCHAR afii10030
ENCODING 1052
SWIDTH 480 0
DWIDTH 6 0
BBX 6 13 0 -2
BITMAP
00
00
44
6C
6C
54
54
88
88
88
88
00
00
ENDCHAR

STARTCHAR afii10031
ENCODING 1053
SWIDTH 480 0
DWIDTH 6 0
BBX 6 13 0 -2
BITMAP
00
00
44
44
44
44
78
88
88
88
88
00
00
ENDCHAR

STARTCHAR afii10032
ENCODING 1054
SWIDTH 480 0
DWIDTH 6 0
BBX 6 13 0 -2
BITMAP
00
00
38
44
44
44
44
88
88
88
70
00
00
ENDCHAR

STARTCHAR afii10033
ENCODING 1055
SWIDTH 480 0
DWIDTH 6 0
BBX 6 13 0 -2
BITMAP
00
00
7C
44
44
44
44
88
88
88
88
00
00
ENDCHAR

STARTCHAR afii10034
ENCODING 1056
SWIDTH 480 0
DWIDTH 6 0
BBX 6 13 0 -2
BITMAP
00
00
78
44
44
44
44
78
80
80
80
00
00
ENDCHAR

STARTCHAR afii10035
ENCODING 1057
SWIDTH 480 0
DWIDTH 6 0
BBX 6 13 0 -2
BITMAP
00
00
38
44
40
40
40
80
80
88
70
00
00
ENDCHAR

STARTCHAR afii10036
ENCODING 1058
SWIDTH 480 0
DWIDTH 6 0
BBX 6 13 0 -2
BITMAP
00
00
F8
20
20
20
20
40
40
40
40
00
00
ENDCHAR

STARTCHAR afii10037
ENCODING 1059
SWIDTH 480 0
DWIDTH 6 0
BBX 6 13 0 -2
BITMAP
00
00
44
44
44
88
88
78
08
88
70
00
00
ENDCHAR

STARTCHAR afii10038
ENCODING 1060
SWIDTH 480 0
DWIDTH 6 0
BBX 6 13 0 -2
BITMAP
00
00
10
38
54
54
A8
A8
70
20
20
00
00
ENDCHAR

STARTCHAR afii10039
ENCODING 1061
SWIDTH 480 0
DWIDTH 6 0
BBX 6 13 0 -2
BITMAP
00
00
44
44
28
28
30
50
50
88
88
00
00
ENDCHAR

STARTCHAR afii10040
ENCODING 1062
SWIDTH 480 0
DWIDTH 6 0
BBX 6 13 0 -2
BITMAP
00
00
48
48
48
48
48
90
90
90
F8
08
08
ENDCHAR

STARTCHAR afii10041
ENCODING 1063
SWIDTH 480 0
DWIDTH 6 0
BBX 6 13 0 -2
BITMAP
00
00
44
44
44
88
78
08
10
10
10
00
00
ENDCHAR

STARTCHAR afii10042
ENCODING 1064
SWIDTH 480 0
DWIDTH 6 0
BBX 6 13 0 -2
BITMAP
00
00
54
54
54
54
54
A8
A8
A8
F8
00
00
ENDCHAR

STARTCHAR afii10043
ENCODING 1065
SWIDTH 480 0
DWIDTH 6 0
BBX 6 13 0 -2
BITMAP
00
00
54
54
54
54
54
A8
A8
A8
F8
08
08
ENDCHAR

STARTCHAR afii10044
ENCODING 1066
SWIDTH 480 0
DWIDTH 6 0
BBX 6 13 0 -2
BITMAP
00
00
60
20
20
20
30
48
48
48
70
00
00
ENDCHAR

STARTCHAR afii10045
ENCODING 1067
SWIDTH 480 0
DWIDTH 6 0
BBX 6 13 0 -2
BITMAP
00
00
44
44
44
74
4C
98
98
98
E8
00
00
ENDCHAR

STARTCHAR afii10046
ENCODING 1068
SWIDTH 480 0
DWIDTH 6 0
BBX 6 13 0 -2
BITMAP
00
00
40
40
40
40
70
88
88
88
F0
00
00
ENDCHAR

STARTCHAR afii10047
ENCODING 1069
SWIDTH 480 0
DWIDTH 6 0
BBX 6 13 0 -2
BITMAP
00
00
70
08
04
04
38
08
08
10
E0
00
00
ENDCHAR

STARTCHAR afii10048
ENCODING 1070
SWIDTH 480 0
DWIDTH 6 0
BBX 6 13 0 -2
BITMAP
00
00
48
54
54
54
74
A8
A8
A8
90
00
00
ENDCHAR

STARTCHAR afii10049
ENCODING 1071
SWIDTH 480 0
DWIDTH 6 0
BBX 6 13 0 -2
BITMAP
00
00
3C
44
44
44
38
28
48
88
88
00
00
ENDCHAR

STARTCHAR afii10065
ENCODING 1072
SWIDTH 480 0
DWIDTH 6 0
BBX 6 13 0 -2
BITMAP
00
00
00
00
00
38
04
78
88
98
68
00
00
ENDCHAR

STARTCHAR afii10066
ENCODING 1073
SWIDTH 480 0
DWIDTH 6 0
BBX 6 13 0 -2
BITMAP
00
00
04
38
40
78
44
88
88
88
70
00
00
ENDCHAR

STARTCHAR afii10067
ENCODING 1074
SWIDTH 480 0
DWIDTH 6 0
BBX 6 13 0 -2
BITMAP
00
00
00
00
00
78
44
F8
88
88
F0
00
00
ENDCHAR

STARTCHAR afii10068
ENCODING 1075
SWIDTH 480 0
DWIDTH 6 0
BBX 6 13 0 -2
BITMAP
00
00
00
00
00
7C
44
40
80
80
80
00
00
ENDCHAR

STARTCHAR afii10069
ENCODING 1076
SWIDTH 480 0
DWIDTH 6 0
BBX 6 13 0 -2
BITMAP
00
00
00
00
00
18
28
28
50
50
F8
88
00
ENDCHAR

STARTCHAR afii10070
ENCODING 1077
SWIDTH 480 0
DWIDTH 6 0
BBX 6 13 0 -2
BITMAP
00
00
00
00
00
38
44
F8
80
88
70
00
00
ENDCHAR

STARTCHAR afii10072
ENCODING 1078
SWIDTH 480 0
DWIDTH 6 0
BBX 6 13 0 -2
BITMAP
00
00
00
00
00
54
54
38
70
A8
A8
00
00
ENDCHAR

STARTCHAR afii10073
ENCODING 1079
SWIDTH 480 0
DWIDTH 6 0
BBX 6 13 0 -2
BITMAP
00
00
00
00
00
38
44
30
08
88
70
00
00
ENDCHAR

STARTCHAR afii10074
ENCODING 1080
SWIDTH 480 0
DWIDTH 6 0
BBX 6 13 0 -2
BITMAP
00
00
00
00
00
44
44
58
A8
C8
88
00
00
ENDCHAR

STARTCHAR afii10075
ENCODING 1081
SWIDTH 480 0
DWIDTH 6 0
BBX 6 13 0 -2
BITMAP
00
00
44
38
00
44
44
58
A8
C8
88
00
00
ENDCHAR

STARTCHAR afii10076
ENCODING 1082
SWIDTH 480 0
DWIDTH 6 0
BBX 6 13 0 -2
BITMAP
00
00
00
00
00
44
48
70
90
88
88
00
00
ENDCHAR

STARTCHAR afii10077
ENCODING 1083
SWIDTH 480 0
DWIDTH 6 0
BBX 6 13 0 -2
BITMAP
00
00
00
00
00
1C
24
24
48
48
88
00
00
ENDCHAR

STARTCHAR afii10078
ENCODING 1084
SWIDTH 480 0
DWIDTH 6 0
BBX 6 13 0 -2
BITMAP
00
00
00
00
00
44
6C
54
A8
88
88
00
00
ENDCHAR

STARTCHAR afii10079
ENCODING 1085
SWIDTH 480 0
DWIDTH 6 0
BBX 6 13 0 -2
BITMAP
00
00
00
00
00
44
44
78
88
88
88
00
00
ENDCHAR

STARTCHAR afii10080
ENCODING 1086
SWIDTH 480 0
DWIDTH 6 0
BBX 6 13 0 -2
BITMAP
00
00
00
00
00
38
44
44
88
88
70
00
00
ENDCHAR

STARTCHAR afii10081
ENCODING 1087
SWIDTH 480 0
DWIDTH 6 0
BBX 6 13 0 -2
BITMAP
00
00
00
00
00
7C
44
44
88
88
88
00
00
ENDCHAR

STARTCHAR afii10082
ENCODING 1088
SWIDTH 480 0
DWIDTH 6 0
BBX 6 13 0 -2
BITMAP
00
00
00
00
00
78
44
44
88
F0
80
80
80
ENDCHAR

STARTCHAR afii10083
ENCODING 1089
SWIDTH 480 0
DWIDTH 6 0
BBX 6 13 0 -2
BITMAP
00
00
00
00
00
38
44
80
80
88
70
00
00
ENDCHAR

STARTCHAR afii10084
ENCODING 1090
SWIDTH 480 0
DWIDTH 6 0
BBX 6 13 0 -2
BITMAP
00
00
00
00
00
7C
54
10
20
20
20
00
00
ENDCHAR

STARTCHAR afii10085
ENCODING 1091
SWIDTH 480 0
DWIDTH 6 0
BBX 6 13 0 -2
BITMAP
00
00
00
00
00
44
44
88
98
68
08
88
70
ENDCHAR

STARTCHAR afii10086
ENCODING 1092
SWIDTH 480 0
DWIDTH 6 0
BBX 6 13 0 -2
BITMAP
00
00
00
10
10
38
54
54
A8
A8
70
20
20
ENDCHAR

STARTCHAR afii10087
ENCODING 1093
SWIDTH 480 0
DWIDTH 6 0
BBX 6 13 0 -2
BITMAP
00
00
00
00
00
44
28
30
50
88
88
00
00
ENDCHAR

STARTCHAR afii10088
ENCODING 1094
SWIDTH 480 0
DWIDTH 6 0
BBX 6 13 0 -2
BITMAP
00
00
00
00
00
48
48
48
90
90
F8
08
08
ENDCHAR

STARTCHAR afii10089
ENCODING 1095
SWIDTH 480 0
DWIDTH 6 0
BBX 6 13 0 -2
BITMAP
00
00
00
00
00
44
44
88
78
08
08
00
00
ENDCHAR

STARTCHAR afii10090
ENCODING 1096
SWIDTH 480 0
DWIDTH 6 0
BBX 6 13 0 -2
BITMAP
00
00
00
00
00
54
54
54
A8
A8
F8
00
00
ENDCHAR

STARTCHAR afii10091
ENCODING 1097
SWIDTH 480 0
DWIDTH 6 0
BBX 6 13 0 -2
BITMAP
00
00
00
00
00
54
54
54
A8
A8
F8
08
08
ENDCHAR

STARTCHAR afii10092
ENCODING 1098
SWIDTH 480 0
DWIDTH 6 0
BBX 6 13 0 -2
BITMAP
00
00
00
00
00
60
20
30
48
48
70
00
00
ENDCHAR

STARTCHAR afii10093
ENCODING 1099
SWIDTH 480 0
DWIDTH 6 0
BBX 6 13 0 -2
BITMAP
00
00
00
00
00
44
44
64
98
98
E8
00
00
ENDCHAR

STARTCHAR afii10094
ENCODING 1100
SWIDTH 480 0
DWIDTH 6 0
BBX 6 13 0 -2
BITMAP
00
00
00
00
00
40
40
70
88
88
F0
00
00
ENDCHAR

STARTCHAR afii10095
ENCODING 1101
SWIDTH 480 0
DWIDTH 6 0
BBX 6 13 0 -2
BITMAP
00
00
00
00
00
78
04
38
08
08
F0
00
00
ENDCHAR

STARTCHAR afii10096
ENCODING 1102
SWIDTH 480 0
DWIDTH 6 0
BBX 6 13 0 -2
BITMAP
00
00
00
00
00
48
54
54
E8
A8
90
00
00
ENDCHAR

STARTCHAR afii10097
ENCODING 1103
SWIDTH 480 0
DWIDTH 6 0
BBX 6 13 0 -2
BITMAP
00
00
00
00
00
3C
44
44
38
48
88
00
00
ENDCHAR

STARTCHAR uni0450
ENCODING 1104
SWIDTH 480 0
DWIDTH 6 0
BBX 6 13 0 -2
BITMAP
00
00
20
10
00
38
44
F8
80
88
70
00
00
ENDCHAR

STARTCHAR afii10071
ENCODING 1105
SWIDTH 480 0
DWIDTH 6 0
BBX 6 13 0 -2
BITMAP
00
00
28
28
00
38
44
F8
80
88
70
00
00
ENDCHAR

STARTCHAR afii10099
ENCODING 1106
SWIDTH 480 0
DWIDTH 6 0
BBX 6 13 0 -2
BITMAP
00
00
40
E0
40
50
68
48
90
90
90
10
20
ENDCHAR

STARTCHAR afii10100
ENCODING 1107
SWIDTH 480 0
DWIDTH 6 0
BBX 6 13 0 -2
BITMAP
00
00
10
20
00
7C
44
40
80
80
80
00
00
ENDCHAR

STARTCHAR afii10101
ENCODING 1108
SWIDTH 480 0
DWIDTH 6 0
BBX 6 13 0 -2
BITMAP
00
00
00
00
00
3C
40
60
80
80
78
00
00
ENDCHAR

STARTCHAR afii10102
ENCODING 1109
SWIDTH 480 0
DWIDTH 6 0
BBX 6 13 0 -2
BITMAP
00
00
00
00
00
38
44
20
10
88
70
00
00
ENDCHAR

STARTCHAR afii10103
ENCODING 1110
SWIDTH 480 0
DWIDTH 6 0
BBX 6 13 0 -2
BITMAP
00
00
00
10
00
30
10
10
20
20
70
00
00
ENDCHAR

STARTCHAR afii10104
ENCODING 1111
SWIDTH 480 0
DWIDTH 6 0
BBX 6 13 0 -2
BITMAP
00
00
28
28
00
30
10
10
20
20
F8
00
00
ENDCHAR

STARTCHAR afii10105
ENCODING 1112
SWIDTH 480 0
DWIDTH 6 0
BBX 6 13 0 -2
BITMAP
00
00
00
08
00
18
08
08
10
10
90
90
60
ENDCHAR

STARTCHAR afii10106
ENCODING 1113
SWIDTH 480 0
DWIDTH 6 0
BBX 6 13 0 -2
BITMAP
00
00
00
00
00
30
50
50
A8
A8
B0
00
00
ENDCHAR

STARTCHAR afii10107
ENCODING 1114
SWIDTH 480 0
DWIDTH 6 0
BBX 6 13 0 -2
BITMAP
00
00
00
00
00
50
50
70
A8
A8
B0
00
00
ENDCHAR

STARTCHAR afii10108
ENCODING 1115
SWIDTH 480 0
DWIDTH 6 0
BBX 6 13 0 -2
BITMAP
00
00
40
E0
40
50
68
48
90
90
90
00
00
ENDCHAR

STARTCHAR afii10109
ENCODING 1116
SWIDTH 480 0
DWIDTH 6 0
BBX 6 13 0 -2
BITMAP
00
00
10
20
00
44
48
70
90
88
88
00
00
ENDCHAR

STARTCHAR uni045D
ENCODING 1117
SWIDTH 480 0
DWIDTH 6 0
BBX 6 13 0 -2
BITMAP
00
00
20
10
00
44
44
58
A8
C8
88
00
00
ENDCHAR

STARTCHAR afii10110
ENCODING 1118
SWIDTH 480 0
DWIDTH 6 0
BBX 6 13 0 -2
BITMAP
00
00
44
38
00
44
44
88
98
68
08
88
70
ENDCHAR

STARTCHAR afii10193
ENCODING 1119
SWIDTH 480 0
DWIDTH 6 0
BBX 6 13 0 -2
BITMAP
00
00
00
00
00
44
44
44
88
88
F8
20
20
ENDCHAR

STARTCHAR uni0460
ENCODING 1120
SWIDTH 480 0
DWIDTH 6 0
BBX 6 13 0 -2
BITMAP
00
00
24
44
44
44
54
A8
A8
A8
50
00
00
ENDCHAR

STARTCHAR uni0461
ENCODING 1121
SWIDTH 480 0
DWIDTH 6 0
BBX 6 13 0 -2
BITMAP
00
00
00
00
00
24
44
54
A8
A8
50
00
00
ENDCHAR

STARTCHAR afii10146
ENCODING 1122
SWIDTH 480 0
DWIDTH 6 0
BBX 6 13 0 -2
BITMAP
00
00
20
78
20
20
30
48
48
48
70
00
00
ENDCHAR

STARTCHAR afii10194
ENCODING 1123
SWIDTH 480 0
DWIDTH 6 0
BBX 6 13 0 -2
BITMAP
00
00
00
20
20
70
20
30
48
48
70
00
00
ENDCHAR

STARTCHAR uni0464
ENCODING 1124
SWIDTH 480 0
DWIDTH 6 0
BBX 6 13 0 -2
BITMAP
00
00
4C
50
50
50
78
A0
A0
A0
98
00
00
ENDCHAR

STARTCHAR uni0465
ENCODING 1125
SWIDTH 480 0
DWIDTH 6 0
BBX 6 13 0 -2
BITMAP
00
00
00
00
00
4C
50
78
A0
A0
98
00
00
ENDCHAR

STARTCHAR uni0466
ENCODING 1126
SWIDTH 480 0
DWIDTH 6 0
BBX 6 13 0 -2
BITMAP
00
00
10
10
28
48
48
88
A8
A8
A8
00
00
ENDCHAR

STARTCHAR uni0467
ENCODING 1127
SWIDTH 480 0
DWIDTH 6 0
BBX 6 13 0 -2
BITMAP
00
00
00
00
00
10
28
48
88
A8
A8
00
00
ENDCHAR

STARTCHAR uni0468
ENCODING 1128
SWIDTH 480 0
DWIDTH 6 0
BBX 6 13 0 -2
BITMAP
00
00
48
48
48
5C
7C
B8
B8
B8
B8
00
00
ENDCHAR

STARTCHAR uni0469
ENCODING 1129
SWIDTH 480 0
DWIDTH 6 0
BBX 6 13 0 -2
BITMAP
00
00
00
00
00
48
48
78
B8
B8
B8
00
00
ENDCHAR

STARTCHAR uni046A
ENCODING 1130
SWIDTH 480 0
DWIDTH 6 0
BBX 6 13 0 -2
BITMAP
00
00
7C
44
28
28
70
A8
A8
A8
A8
00
00
ENDCHAR

STARTCHAR uni046B
ENCODING 1131
SWIDTH 480 0
DWIDTH 6 0
BBX 6 13 0 -2
BITMAP
00
00
00
00
00
7C
28
28
70
A8
A8
00
00
ENDCHAR

STARTCHAR uni046C
ENCODING 1132
SWIDTH 480 0
DWIDTH 6 0
BBX 6 13 0 -2
BITMAP
00
00
5C
54
54
54
78
B8
D4
D4
D4
00
00
ENDCHAR

STARTCHAR uni046D
ENCODING 1133
SWIDTH 480 0
DWIDTH 6 0
BBX 6 13 0 -2
BITMAP
00
00
00
00
00
5C
54
98
F8
B8
B8
00
00
ENDCHAR

STARTCHAR uni046E
ENCODING 1134
SWIDTH 480 0
DWIDTH 6 0
BBX 6 13 0 -2
BITMAP
00
24
18
00
38
44
04
38
08
08
70
80
70
ENDCHAR

STARTCHAR uni046F
ENCODING 1135
SWIDTH 480 0
DWIDTH 6 0
BBX 6 13 0 -2
BITMAP
00
00
24
18
00
38
44
18
08
08
70
80
70
ENDCHAR

STARTCHAR uni0470
ENCODING 1136
SWIDTH 480 0
DWIDTH 6 0
BBX 6 13 0 -2
BITMAP
00
00
54
54
54
54
A8
70
20
20
20
00
00
ENDCHAR

STARTCHAR uni0471
ENCODING 1137
SWIDTH 480 0
DWIDTH 6 0
BBX 6 13 0 -2
BITMAP
00
00
00
00
00
54
54
54
A8
A8
70
20
20
ENDCHAR

STARTCHAR afii10147
ENCODING 1138
SWIDTH 480 0
DWIDTH 6 0
BBX 6 13 0 -2
BITMAP
00
00
38
44
44
44
78
88
88
88
70
00
00
ENDCHAR

STARTCHAR afii10195
ENCODING 1139
SWIDTH 480 0
DWIDTH 6 0
BBX 6 13 0 -2
BITMAP
00
00
00
00
00
18
24
38
48
48
30
00
00
ENDCHAR

STARTCHAR afii10148
ENCODING 1140
SWIDTH 480 0
DWIDTH 6 0
BBX 6 13 0 -2
BITMAP
00
00
98
90
90
90
90
A0
A0
40
40
00
00
ENDCHAR

STARTCHAR afii10196
ENCODING 1141
SWIDTH 480 0
DWIDTH 6 0
BBX 6 13 0 -2
BITMAP
00
00
00
00
00
98
90
A0
A0
A0
40
00
00
ENDCHAR

STARTCHAR uni0476
ENCODING 1142
SWIDTH 480 0
DWIDTH 6 0
BBX 6 13 0 -2
BITMAP
00
90
48
00
98
90
90
A0
A0
40
40
00
00
ENDCHAR

STARTCHAR uni0477
ENCODING 1143
SWIDTH 480 0
DWIDTH 6 0
BBX 6 13 0 -2
BITMAP
00
00
90
48
00
98
90
A0
A0
A0
40
00
00
ENDCHAR

STARTCHAR uni0478
ENCODING 1144
SWIDTH 480 0
DWIDTH 6 0
BBX 6 13 0 -2
BITMAP
00
00
20
50
50
5C
5C
B8
B8
B8
58
08
10
ENDCHAR

STARTCHAR uni0479
ENCODING 1145
SWIDTH 480 0
DWIDTH 6 0
BBX 6 13 0 -2
BITMAP
00
00
00
00
00
2C
5C
5C
B8
B8
58
08
10
ENDCHAR

STARTCHAR uni047A
ENCODING 1146
SWIDTH 480 0
DWIDTH 6 0
BBX 6 13 0 -2
BITMAP
00
10
38
54
44
44
44
88
88
A8
70
20
00
ENDCHAR

STARTCHAR uni047B
ENCODING 1147
SWIDTH 480 0
DWIDTH 6 0
BBX 6 13 0 -2
BITMAP
00
00
00
00
10
38
54
44
88
A8
70
20
00
ENDCHAR

STARTCHAR uni047C
ENCODING 1148
SWIDTH 480 0
DWIDTH 6 0
BBX 6 13 0 -2
BITMAP
30
4C
30
00
24
44
54
54
A8
A8
50
00
00
ENDCHAR

STARTCHAR uni047D
ENCODING 1149
SWIDTH 480 0
DWIDTH 6 0
BBX 6 13 0 -2
BITMAP
00
30
4C
30
00
24
44
54
A8
A8
50
00
00
ENDCHAR

STARTCHAR uni047E
ENCODING 1150
SWIDTH 480 0
DWIDTH 6 0
BBX 6 13 0 -2
BITMAP
00
7C
54
00
24
44
54
54
A8
A8
50
00
00
ENDCHAR

STARTCHAR uni047F
ENCODING 1151
SWIDTH 480 0
DWIDTH 6 0
BBX 6 13 0 -2
BITMAP
00
00
7C
54
00
24
44
54
A8
A8
50
00
00
ENDCHAR

STARTCHAR afii10050
ENCODING 1168
SWIDTH 480 0
DWIDTH 6 0
BBX 6 13 0 -2
BITMAP
00
04
7C
40
40
40
40
80
80
80
80
00
00
ENDCHAR

STARTCHAR afii10098
ENCODING 1169
SWIDTH 480 0
DWIDTH 6 0
BBX 6 13 0 -2
BITMAP
00
00
00
00
04
7C
40
40
80
80
80
00
00
ENDCHAR

STARTCHAR uni1E00
ENCODING 7680
SWIDTH 480 0
DWIDTH 6 0
BBX 6 13 0 -2
BITMAP
00
00
10
28
44
44
78
88
88
88
20
50
20
ENDCHAR

STARTCHAR uni1E01
ENCODING 7681
SWIDTH 480 0
DWIDTH 6 0
BBX 6 13 0 -2
BITMAP
00
00
00
00
38
04
78
88
98
68
20
50
20
ENDCHAR

STARTCHAR uni1E02
ENCODING 7682
SWIDTH 480 0
DWIDTH 6 0
BBX 6 13 0 -2
BITMAP
00
10
10
00
78
24
24
38
48
48
F0
00
00
ENDCHAR

STARTCHAR uni1E03
ENCODING 7683
SWIDTH 480 0
DWIDTH 6 0
BBX 6 13 0 -2
BITMAP
00
10
50
40
40
78
44
44
88
88
F0
00
00
ENDCHAR

STARTCHAR uni1E04
ENCODING 7684
SWIDTH 480 0
DWIDTH 6 0
BBX 6 13 0 -2
BITMAP
00
00
78
24
24
24
38
48
48
48
F0
00
20
ENDCHAR

STARTCHAR uni1E05
ENCODING 7685
SWIDTH 480 0
DWIDTH 6 0
BBX 6 13 0 -2
BITMAP
00
00
40
40
40
78
44
44
88
88
F0
00
20
ENDCHAR

STARTCHAR uni1E06
ENCODING 7686
SWIDTH 480 0
DWIDTH 6 0
BBX 6 13 0 -2
BITMAP
00
00
78
24
24
24
38
48
48
48
F0
00
F8
ENDCHAR

STARTCHAR uni1E07
ENCODING 7687
SWIDTH 480 0
DWIDTH 6 0
BBX 6 13 0 -2
BITMAP
00
00
40
40
40
78
44
44
88
88
F0
00
F8
ENDCHAR

STARTCHAR uni1E08
ENCODING 7688
SWIDTH 480 0
DWIDTH 6 0
BBX 6 13 0 -2
BITMAP
00
08
10
00
38
44
40
80
80
88
70
20
40
ENDCHAR

STARTCHAR uni1E09
ENCODING 7689
SWIDTH 480 0
DWIDTH 6 0
BBX 6 13 0 -2
BITMAP
00
00
08
10
00
38
44
80
80
88
70
20
40
ENDCHAR

STARTCHAR uni1E0A
ENCODING 7690
SWIDTH 480 0
DWIDTH 6 0
BBX 6 13 0 -2
BITMAP
00
10
10
00
78
24
24
48
48
48
F0
00
00
ENDCHAR

STARTCHAR uni1E0B
ENCODING 7691
SWIDTH 480 0
DWIDTH 6 0
BBX 6 13 0 -2
BITMAP
00
10
14
04
04
3C
44
44
88
88
78
00
00
ENDCHAR

STARTCHAR uni1E0C
ENCODING 7692
SWIDTH 480 0
DWIDTH 6 0
BBX 6 13 0 -2
BITMAP
00
00
78
24
24
24
24
48
48
48
F0
00
20
ENDCHAR

STARTCHAR uni1E0D
ENCODING 7693
SWIDTH 480 0
DWIDTH 6 0
BBX 6 13 0 -2
BITMAP
00
00
04
04
04
3C
44
44
88
88
78
00
20
ENDCHAR

STARTCHAR uni1E0E
ENCODING 7694
SWIDTH 480 0
DWIDTH 6 0
BBX 6 13 0 -2
BITMAP
00
00
78
24
24
24
48
48
48
48
F0
00
F8
ENDCHAR

STARTCHAR uni1E0F
ENCODING 7695
SWIDTH 480 0
DWIDTH 6 0
BBX 6 13 0 -2
BITMAP
00
00
04
04
04
3C
44
44
88
88
78
00
F8
ENDCHAR

STARTCHAR uni1E1E
ENCODING 7710
SWIDTH 480 0
DWIDTH 6 0
BBX 6 13 0 -2
BITMAP
00
10
10
00
7C
40
40
70
80
80
80
00
00
ENDCHAR

STARTCHAR uni1E1F
ENCODING 7711
SWIDTH 480 0
DWIDTH 6 0
BBX 6 13 0 -2
BITMAP
00
10
10
00
18
24
20
F0
40
40
40
00
00
ENDCHAR

STARTCHAR uni1E40
ENCODING 7744
SWIDTH 480 0
DWIDTH 6 0
BBX 6 13 0 -2
BITMAP
00
10
10
44
44
6C
54
A8
88
88
88
00
00
ENDCHAR

STARTCHAR uni1E41
ENCODING 7745
SWIDTH 480 0
DWIDTH 6 0
BBX 6 13 0 -2
BITMAP
00
00
10
10
00
68
54
54
A8
A8
88
00
00
ENDCHAR

STARTCHAR uni1E42
ENCODING 7746
SWIDTH 480 0
DWIDTH 6 0
BBX 6 13 0 -2
BITMAP
00
00
44
44
6C
54
54
88
88
88
88
00
20
ENDCHAR

STARTCHAR uni1E43
ENCODING 7747
SWIDTH 480 0
DWIDTH 6 0
BBX 6 13 0 -2
BITMAP
00
00
00
00
00
68
54
54
A8
A8
88
00
20
ENDCHAR

STARTCHAR uni1E56
ENCODING 7766
SWIDTH 480 0
DWIDTH 6 0
BBX 6 13 0 -2
BITMAP
00
10
10
00
78
44
44
78
80
80
80
00
00
ENDCHAR

STARTCHAR uni1E57
ENCODING 7767
SWIDTH 480 0
DWIDTH 6 0
BBX 6 13 0 -2
BITMAP
00
00
10
10
00
78
44
88
88
F0
80
80
80
ENDCHAR

STARTCHAR uni1E58
ENCODING 7768
SWIDTH 480 0
DWIDTH 6 0
BBX 6 13 0 -2
BITMAP
00
10
10
00
78
44
44
78
A0
90
88
00
00
ENDCHAR

STARTCHAR uni1E59
ENCODING 7769
SWIDTH 480 0
DWIDTH 6 0
BBX 6 13 0 -2
BITMAP
00
00
10
10
00
58
64
40
80
80
80
00
00
ENDCHAR

STARTCHAR uni1E60
ENCODING 7776
SWIDTH 480 0
DWIDTH 6 0
BBX 6 13 0 -2
BITMAP
00
10
10
00
38
44
40
30
08
88
70
00
00
ENDCHAR

STARTCHAR uni1E61
ENCODING 7777
SWIDTH 480 0
DWIDTH 6 0
BBX 6 13 0 -2
BITMAP
00
00
10
10
00
38
44
20
10
88
70
00
00
ENDCHAR

STARTCHAR uni1E6A
ENCODING 7786
SWIDTH 480 0
DWIDTH 6 0
BBX 6 13 0 -2
BITMAP
00
10
10
00
7C
10
10
10
20
20
20
00
00
ENDCHAR

STARTCHAR uni1E6B
ENCODING 7787
SWIDTH 480 0
DWIDTH 6 0
BBX 6 13 0 -2
BITMAP
00
10
10
00
20
20
78
20
40
48
30
00
00
ENDCHAR

STARTCHAR Wgrave
ENCODING 7808
SWIDTH 480 0
DWIDTH 6 0
BBX 6 13 0 -2
BITMAP
00
20
10
00
44
44
54
A8
A8
D8
88
00
00
ENDCHAR

STARTCHAR wgrave
ENCODING 7809
SWIDTH 480 0
DWIDTH 6 0
BBX 6 13 0 -2
BITMAP
00
00
20
10
00
44
44
54
A8
A8
50
00
00
ENDCHAR

STARTCHAR Wacute
ENCODING 7810
SWIDTH 480 0
DWIDTH 6 0
BBX 6 13 0 -2
BITMAP
00
08
10
00
44
44
54
A8
A8
D8
88
00
00
ENDCHAR

STARTCHAR wacute
ENCODING 7811
SWIDTH 480 0
DWIDTH 6 0
BBX 6 13 0 -2
BITMAP
00
00
08
10
00
44
44
54
A8
A8
50
00
00
ENDCHAR

STARTCHAR Wdieresis
ENCODING 7812
SWIDTH 480 0
DWIDTH 6 0
BBX 6 13 0 -2
BITMAP
00
28
28
00
44
44
54
A8
A8
D8
88
00
00
ENDCHAR

STARTCHAR wdieresis
ENCODING 7813
SWIDTH 480 0
DWIDTH 6 0
BBX 6 13 0 -2
BITMAP
00
00
28
28
00
44
44
54
A8
A8
50
00
00
ENDCHAR

STARTCHAR uni1E86
ENCODING 7814
SWIDTH 480 0
DWIDTH 6 0
BBX 6 13 0 -2
BITMAP
00
10
10
00
44
44
54
A8
A8
D8
88
00
00
ENDCHAR

STARTCHAR uni1E87
ENCODING 7815
SWIDTH 480 0
DWIDTH 6 0
BBX 6 13 0 -2
BITMAP
00
00
10
10
00
44
44
54
A8
A8
50
00
00
ENDCHAR

STARTCHAR uni1E88
ENCODING 7816
SWIDTH 480 0
DWIDTH 6 0
BBX 6 13 0 -2
BITMAP
00
00
44
44
44
44
54
A8
A8
D8
88
00
20
ENDCHAR

STARTCHAR uni1E89
ENCODING 7817
SWIDTH 480 0
DWIDTH 6 0
BBX 6 13 0 -2
BITMAP
00
00
00
00
00
44
44
54
A8
A8
50
00
20
ENDCHAR

STARTCHAR uni1E8A
ENCODING 7818
SWIDTH 480 0
DWIDTH 6 0
BBX 6 13 0 -2
BITMAP
00
10
10
00
44
44
28
30
50
88
88
00
00
ENDCHAR

STARTCHAR uni1E8B
ENCODING 7819
SWIDTH 480 0
DWIDTH 6 0
BBX 6 13 0 -2
BITMAP
00
00
10
10
00
44
28
10
20
50
88
00
00
ENDCHAR

STARTCHAR uni1E8C
ENCODING 7820
SWIDTH 480 0
DWIDTH 6 0
BBX 6 13 0 -2
BITMAP
00
28
28
00
44
44
28
30
50
88
88
00
00
ENDCHAR

STARTCHAR uni1E8D
ENCODING 7821
SWIDTH 480 0
DWIDTH 6 0
BBX 6 13 0 -2
BITMAP
00
00
28
28
00
44
28
30
20
50
88
00
00
ENDCHAR

STARTCHAR uni1E8E
ENCODING 7822
SWIDTH 480 0
DWIDTH 6 0
BBX 6 13 0 -2
BITMAP
00
10
10
00
44
44
28
10
10
20
20
00
00
ENDCHAR

STARTCHAR uni1E8F
ENCODING 7823
SWIDTH 480 0
DWIDTH 6 0
BBX 6 13 0 -2
BITMAP
00
00
10
10
00
44
44
88
98
68
08
88
70
ENDCHAR

STARTCHAR uni1E90
ENCODING 7824
SWIDTH 480 0
DWIDTH 6 0
BBX 6 13 0 -2
BITMAP
00
18
24
00
7C
04
08
30
40
80
F8
00
00
ENDCHAR

STARTCHAR uni1E91
ENCODING 7825
SWIDTH 480 0
DWIDTH 6 0
BBX 6 13 0 -2
BITMAP
00
00
18
24
00
7C
08
30
40
80
F8
00
00
ENDCHAR

STARTCHAR uni1E92
ENCODING 7826
SWIDTH 480 0
DWIDTH 6 0
BBX 6 13 0 -2
BITMAP
00
00
7C
04
08
10
10
20
40
80
F8
00
20
ENDCHAR

STARTCHAR uni1E93
ENCODING 7827
SWIDTH 480 0
DWIDTH 6 0
BBX 6 13 0 -2
BITMAP
00
00
00
00
00
7C
08
30
40
80
F8
00
20
ENDCHAR

STARTCHAR uni1E94
ENCODING 7828
SWIDTH 480 0
DWIDTH 6 0
BBX 6 13 0 -2
BITMAP
00
00
7C
04
08
10
10
20
40
80
F8
00
F8
ENDCHAR

STARTCHAR uni1E95
ENCODING 7829
SWIDTH 480 0
DWIDTH 6 0
BBX 6 13 0 -2
BITMAP
00
00
00
00
00
7C
08
30
40
80
F8
00
F8
ENDCHAR

STARTCHAR uni1E96
ENCODING 7830
SWIDTH 480 0
DWIDTH 6 0
BBX 6 13 0 -2
BITMAP
00
00
40
40
40
58
64
44
88
88
88
00
F8
ENDCHAR

STARTCHAR uni1E97
ENCODING 7831
SWIDTH 480 0
DWIDTH 6 0
BBX 6 13 0 -2
BITMAP
00
28
28
00
20
20
78
20
40
48
30
00
00
ENDCHAR

STARTCHAR uni1E98
ENCODING 7832
SWIDTH 480 0
DWIDTH 6 0
BBX 6 13 0 -2
BITMAP
00
10
28
10
00
44
44
54
A8
A8
50
00
00
ENDCHAR

STARTCHAR uni1E99
ENCODING 7833
SWIDTH 480 0
DWIDTH 6 0
BBX 6 13 0 -2
BITMAP
00
10
28
10
00
44
44
88
98
68
08
88
70
ENDCHAR

STARTCHAR uni1E9A
ENCODING 7834
SWIDTH 480 0
DWIDTH 6 0
BBX 6 13 0 -2
BITMAP
08
04
04
08
00
38
04
78
88
88
78
00
00
ENDCHAR

STARTCHAR uni1E9B
ENCODING 7835
SWIDTH 480 0
DWIDTH 6 0
BBX 6 13 0 -2
BITMAP
00
10
10
00
18
24
20
C0
40
40
40
00
00
ENDCHAR

STARTCHAR Ygrave
ENCODING 7922
SWIDTH 480 0
DWIDTH 6 0
BBX 6 13 0 -2
BITMAP
00
20
10
00
44
44
28
10
10
20
20
00
00
ENDCHAR

STARTCHAR ygrave
ENCODING 7923
SWIDTH 480 0
DWIDTH 6 0
BBX 6 13 0 -2
BITMAP
00
00
20
10
00
44
44
88
98
68
08
88
70
ENDCHAR

STARTCHAR uni2000
ENCODING 8192
SWIDTH 480 0
DWIDTH 6 0
BBX 6 13 0 -2
BITMAP
00
00
00
00
00
00
00
00
00
00
00
00
00
ENDCHAR

STARTCHAR uni2001
ENCODING 8193
SWIDTH 480 0
DWIDTH 6 0
BBX 6 13 0 -2
BITMAP
00
00
00
00
00
00
00
00
00
00
00
00
00
ENDCHAR

STARTCHAR uni2002
ENCODING 8194
SWIDTH 480 0
DWIDTH 6 0
BBX 6 13 0 -2
BITMAP
00
00
00
00
00
00
00
00
00
00
00
00
00
ENDCHAR

STARTCHAR uni2003
ENCODING 8195
SWIDTH 480 0
DWIDTH 6 0
BBX 6 13 0 -2
BITMAP
00
00
00
00
00
00
00
00
00
00
00
00
00
ENDCHAR

STARTCHAR uni2004
ENCODING 8196
SWIDTH 480 0
DWIDTH 6 0
BBX 6 13 0 -2
BITMAP
00
00
00
00
00
00
00
00
00
00
00
00
00
ENDCHAR

STARTCHAR uni2005
ENCODING 8197
SWIDTH 480 0
DWIDTH 6 0
BBX 6 13 0 -2
BITMAP
00
00
00
00
00
00
00
00
00
00
00
00
00
ENDCHAR

STARTCHAR uni2006
ENCODING 8198
SWIDTH 480 0
DWIDTH 6 0
BBX 6 13 0 -2
BITMAP
00
00
00
00
00
00
00
00
00
00
00
00
00
ENDCHAR

STARTCHAR uni2007
ENCODING 8199
SWIDTH 480 0
DWIDTH 6 0
BBX 6 13 0 -2
BITMAP
00
00
00
00
00
00
00
00
00
00
00
00
00
ENDCHAR

STARTCHAR uni2008
ENCODING 8200
SWIDTH 480 0
DWIDTH 6 0
BBX 6 13 0 -2
BITMAP
00
00
00
00
00
00
00
00
00
00
00
00
00
ENDCHAR

STARTCHAR uni2009
ENCODING 8201
SWIDTH 480 0
DWIDTH 6 0
BBX 6 13 0 -2
BITMAP
00
00
00
00
00
00
00
00
00
00
00
00
00
ENDCHAR

STARTCHAR uni200A
ENCODING 8202
SWIDTH 480 0
DWIDTH 6 0
BBX 6 13 0 -2
BITMAP
00
00
00
00
00
00
00
00
00
00
00
00
00
ENDCHAR

STARTCHAR uni2010
ENCODING 8208
SWIDTH 480 0
DWIDTH 6 0
BBX 6 13 0 -2
BITMAP
00
00
00
00
00
00
38
00
00
00
00
00
00
ENDCHAR

STARTCHAR uni2011
ENCODING 8209
SWIDTH 480 0
DWIDTH 6 0
BBX 6 13 0 -2
BITMAP
00
00
00
00
00
00
38
00
00
00
00
00
00
ENDCHAR

STARTCHAR figuredash
ENCODING 8210
SWIDTH 480 0
DWIDTH 6 0
BBX 6 13 0 -2
BITMAP
00
00
00
00
00
00
7C
00
00
00
00
00
00
ENDCHAR

STARTCHAR endash
ENCODING 8211
SWIDTH 480 0
DWIDTH 6 0
BBX 6 13 0 -2
BITMAP
00
00
00
00
00
00
7C
00
00
00
00
00
00
ENDCHAR

STARTCHAR emdash
ENCODING 8212
SWIDTH 480 0
DWIDTH 6 0
BBX 6 13 0 -2
BITMAP
00
00
00
00
00
00
FC
00
00
00
00
00
00
ENDCHAR

STARTCHAR afii00208
ENCODING 8213
SWIDTH 480 0
DWIDTH 6 0
BBX 6 13 0 -2
BITMAP
00
00
00
00
00
00
FC
00
00
00
00
00
00
ENDCHAR

STARTCHAR uni2016
ENCODING 8214
SWIDTH 480 0
DWIDTH 6 0
BBX 6 13 0 -2
BITMAP
00
00
28
28
28
28
28
50
50
50
50
00
00
ENDCHAR

STARTCHAR underscoredbl
ENCODING 8215
SWIDTH 480 0
DWIDTH 6 0
BBX 6 13 0 -2
BITMAP
00
00
00
00
00
00
00
00
00
00
7C
00
F8
ENDCHAR

STARTCHAR quoteleft
ENCODING 8216
SWIDTH 480 0
DWIDTH 6 0
BBX 6 13 0 -2
BITMAP
00
00
10
20
30
00
00
00
00
00
00
00
00
ENDCHAR

STARTCHAR quoteright
ENCODING 8217
SWIDTH 480 0
DWIDTH 6 0
BBX 6 13 0 -2
BITMAP
00
00
30
10
20
00
00
00
00
00
00
00
00
ENDCHAR

STARTCHAR quotesinglbase
ENCODING 8218
SWIDTH 480 0
DWIDTH 6 0
BBX 6 13 0 -2
BITMAP
00
00
00
00
00
00
00
00
00
30
10
20
00
ENDCHAR

STARTCHAR quotereversed
ENCODING 8219
SWIDTH 480 0
DWIDTH 6 0
BBX 6 13 0 -2
BITMAP
00
00
30
20
10
00
00
00
00
00
00
00
00
ENDCHAR

STARTCHAR quotedblleft
ENCODING 8220
SWIDTH 480 0
DWIDTH 6 0
BBX 6 13 0 -2
BITMAP
00
00
24
48
6C
00
00
00
00
00
00
00
00
ENDCHAR

STARTCHAR quotedblright
ENCODING 8221
SWIDTH 480 0
DWIDTH 6 0
BBX 6 13 0 -2
BITMAP
00
00
6C
24
48
00
00
00
00
00
00
00
00
ENDCHAR

STARTCHAR quotedblbase
ENCODING 8222
SWIDTH 480 0
DWIDTH 6 0
BBX 6 13 0 -2
BITMAP
00
00
00
00
00
00
00
00
00
D8
48
90
00
ENDCHAR

STARTCHAR uni201F
ENCODING 8223
SWIDTH 480 0
DWIDTH 6 0
BBX 6 13 0 -2
BITMAP
00
00
6C
48
24
00
00
00
00
00
00
00
00
ENDCHAR

STARTCHAR dagger
ENCODING 8224
SWIDTH 480 0
DWIDTH 6 0
BBX 6 13 0 -2
BITMAP
00
00
10
10
7C
10
10
20
20
20
20
00
00
ENDCHAR

STARTCHAR daggerdbl
ENCODING 8225
SWIDTH 480 0
DWIDTH 6 0
BBX 6 13 0 -2
BITMAP
00
00
10
10
7C
10
10
F8
20
20
20
00
00
ENDCHAR

STARTCHAR bullet
ENCODING 8226
SWIDTH 480 0
DWIDTH 6 0
BBX 6 13 0 -2
BITMAP
00
00
00
00
38
7C
FC
F8
70
00
00
00
00
ENDCHAR

STARTCHAR uni2023
ENCODING 8227
SWIDTH 480 0
DWIDTH 6 0
BBX 6 13 0 -2
BITMAP
00
00
00
40
60
70
78
70
60
40
00
00
00
ENDCHAR

STARTCHAR onedotenleader
ENCODING 8228
SWIDTH 480 0
DWIDTH 6 0
BBX 6 13 0 -2
BITMAP
00
00
00
00
00
00
00
00
00
00
20
00
00
ENDCHAR

STARTCHAR twodotenleader
ENCODING 8229
SWIDTH 480 0
DWIDTH 6 0
BBX 6 13 0 -2
BITMAP
00
00
00
00
00
00
00
00
00
00
50
00
00
ENDCHAR

STARTCHAR ellipsis
ENCODING 8230
SWIDTH 480 0
DWIDTH 6 0
BBX 6 13 0 -2
BITMAP
00
00
00
00
00
00
00
00
00
00
A8
00
00
ENDCHAR

STARTCHAR uni2027
ENCODING 8231
SWIDTH 480 0
DWIDTH 6 0
BBX 6 13 0 -2
BITMAP
00
00
00
00
00
00
00
30
00
00
00
00
00
ENDCHAR

STARTCHAR uni202F
ENCODING 8239
SWIDTH 480 0
DWIDTH 6 0
BBX 6 13 0 -2
BITMAP
00
00
00
00
00
00
00
00
00
00
00
00
00
ENDCHAR

STARTCHAR perthousand
ENCODING 8240
SWIDTH 480 0
DWIDTH 6 0
BBX 6 13 0 -2
BITMAP
00
00
48
A8
50
10
20
40
68
D4
A8
00
00
ENDCHAR

STARTCHAR uni2031
ENCODING 8241
SWIDTH 480 0
DWIDTH 6 0
BBX 6 13 0 -2
BITMAP
00
00
48
A8
50
10
28
54
68
D4
A8
00
00
ENDCHAR

STARTCHAR minute
ENCODING 8242
SWIDTH 480 0
DWIDTH 6 0
BBX 6 13 0 -2
BITMAP
00
00
20
20
40
00
00
00
00
00
00
00
00
ENDCHAR

STARTCHAR second
ENCODING 8243
SWIDTH 480 0
DWIDTH 6 0
BBX 6 13 0 -2
BITMAP
00
00
50
50
A0
00
00
00
00
00
00
00
00
ENDCHAR

STARTCHAR uni2034
ENCODING 8244
SWIDTH 480 0
DWIDTH 6 0
BBX 6 13 0 -2
BITMAP
00
00
54
54
A8
00
00
00
00
00
00
00
00
ENDCHAR

STARTCHAR uni2035
ENCODING 8245
SWIDTH 480 0
DWIDTH 6 0
BBX 6 13 0 -2
BITMAP
00
00
40
40
20
00
00
00
00
00
00
00
00
ENDCHAR

STARTCHAR uni2036
ENCODING 8246
SWIDTH 480 0
DWIDTH 6 0
BBX 6 13 0 -2
BITMAP
00
00
A0
A0
50
00
00
00
00
00
00
00
00
ENDCHAR

STARTCHAR uni2037
ENCODING 8247
SWIDTH 480 0
DWIDTH 6 0
BBX 6 13 0 -2
BITMAP
00
00
A8
A8
54
00
00
00
00
00
00
00
00
ENDCHAR

STARTCHAR uni2038
ENCODING 8248
SWIDTH 480 0
DWIDTH 6 0
BBX 6 13 0 -2
BITMAP
00
00
00
00
00
00
00
00
00
20
20
50
50
ENDCHAR

STARTCHAR guilsinglleft
ENCODING 8249
SWIDTH 480 0
DWIDTH 6 0
BBX 6 13 0 -2
BITMAP
00
00
00
00
10
20
40
40
20
10
00
00
00
ENDCHAR

STARTCHAR guilsinglright
ENCODING 8250
SWIDTH 480 0
DWIDTH 6 0
BBX 6 13 0 -2
BITMAP
00
00
00
00
40
20
10
10
20
40
00
00
00
ENDCHAR

STARTCHAR uni203B
ENCODING 8251
SWIDTH 480 0
DWIDTH 6 0
BBX 6 13 0 -2
BITMAP
00
00
A8
88
50
20
A8
20
50
88
A8
00
00
ENDCHAR

STARTCHAR exclamdbl
ENCODING 8252
SWIDTH 480 0
DWIDTH 6 0
BBX 6 13 0 -2
BITMAP
00
00
28
28
28
28
50
50
50
00
50
00
00
ENDCHAR

STARTCHAR uni203D
ENCODING 8253
SWIDTH 480 0
DWIDTH 6 0
BBX 6 13 0 -2
BITMAP
00
00
38
54
14
14
18
20
20
00
20
00
00
ENDCHAR

STARTCHAR uni203E
ENCODING 8254
SWIDTH 480 0
DWIDTH 6 0
BBX 6 13 0 -2
BITMAP
00
FC
00
00
00
00
00
00
00
00
00
00
00
ENDCHAR

STARTCHAR uni203F
ENCODING 8255
SWIDTH 480 0
DWIDTH 6 0
BBX 6 13 0 -2
BITMAP
00
00
00
00
00
00
00
00
00
00
00
88
70
ENDCHAR

STARTCHAR uni2040
ENCODING 8256
SWIDTH 480 0
DWIDTH 6 0
BBX 6 13 0 -2
BITMAP
00
70
88
00
00
00
00
00
00
00
00
00
00
ENDCHAR

STARTCHAR uni2041
ENCODING 8257
SWIDTH 480 0
DWIDTH 6 0
BBX 6 13 0 -2
BITMAP
00
00
00
00
00
08
08
10
10
20
20
50
50
ENDCHAR

STARTCHAR uni2042
ENCODING 8258
SWIDTH 480 0
DWIDTH 6 0
BBX 6 13 0 -2
BITMAP
00
00
00
00
20
70
20
50
F8
50
00
00
00
ENDCHAR

STARTCHAR uni2043
ENCODING 8259
SWIDTH 480 0
DWIDTH 6 0
BBX 6 13 0 -2
BITMAP
00
00
00
00
00
00
70
70
00
00
00
00
00
ENDCHAR

STARTCHAR fraction
ENCODING 8260
SWIDTH 480 0
DWIDTH 6 0
BBX 6 13 0 -2
BITMAP
00
00
08
10
10
20
20
40
40
80
80
00
00
ENDCHAR

STARTCHAR uni2045
ENCODING 8261
SWIDTH 480 0
DWIDTH 6 0
BBX 6 13 0 -2
BITMAP
00
00
70
40
40
40
70
40
40
40
70
00
00
ENDCHAR

STARTCHAR uni2046
ENCODING 8262
SWIDTH 480 0
DWIDTH 6 0
BBX 6 13 0 -2
BITMAP
00
00
70
10
10
10
70
10
10
10
70
00
00
ENDCHAR

STARTCHAR uni2048
ENCODING 8264
SWIDTH 480 0
DWIDTH 6 0
BBX 6 13 0 -2
BITMAP
00
00
24
54
54
14
28
48
48
00
48
00
00
ENDCHAR

STARTCHAR uni2049
ENCODING 8265
SWIDTH 480 0
DWIDTH 6 0
BBX 6 13 0 -2
BITMAP
00
00
48
54
54
44
88
90
90
00
90
00
00
ENDCHAR

STARTCHAR uni204A
ENCODING 8266
SWIDTH 480 0
DWIDTH 6 0
BBX 6 13 0 -2
BITMAP
00
00
00
00
00
78
08
08
10
10
10
00
00
ENDCHAR

STARTCHAR uni204B
ENCODING 8267
SWIDTH 480 0
DWIDTH 6 0
BBX 6 13 0 -2
BITMAP
00
00
78
5C
5C
5C
5C
B8
A0
A0
A0
00
00
ENDCHAR

STARTCHAR uni204C
ENCODING 8268
SWIDTH 480 0
DWIDTH 6 0
BBX 6 13 0 -2
BITMAP
00
00
00
00
78
E8
E8
E8
78
00
00
00
00
ENDCHAR

STARTCHAR uni204D
ENCODING 8269
SWIDTH 480 0
DWIDTH 6 0
BBX 6 13 0 -2
BITMAP
00
00
00
00
F0
B8
B8
B8
F0
00
00
00
00
ENDCHAR

STARTCHAR Euro
ENCODING 8364
SWIDTH 480 0
DWIDTH 6 0
BBX 6 13 0 -2
BITMAP
00
00
1C
20
20
F8
40
F0
40
40
38
00
00
ENDCHAR

STARTCHAR afii61352
ENCODING 8470
SWIDTH 480 0
DWIDTH 6 0
BBX 6 13 0 -2
BITMAP
00
00
48
48
68
68
6C
B4
B4
94
98
00
00
ENDCHAR

STARTCHAR trademark
ENCODING 8482
SWIDTH 480 0
DWIDTH 6 0
BBX 6 13 0 -2
BITMAP
00
00
F4
5C
A8
A8
00
00
00
00
00
00
00
ENDCHAR

STARTCHAR Omega
ENCODING 8486
SWIDTH 480 0
DWIDTH 6 0
BBX 6 13 0 -2
BITMAP
00
00
38
44
44
44
88
88
50
50
D8
00
00
ENDCHAR

STARTCHAR uni2127
ENCODING 8487
SWIDTH 480 0
DWIDTH 6 0
BBX 6 13 0 -2
BITMAP
00
00
6C
28
28
44
44
88
88
88
70
00
00
ENDCHAR

STARTCHAR oneeighth
ENCODING 8539
SWIDTH 480 0
DWIDTH 6 0
BBX 6 13 0 -2
BITMAP
00
00
40
40
40
80
90
28
30
50
20
00
00
ENDCHAR

STARTCHAR threeeighths
ENCODING 8540
SWIDTH 480 0
DWIDTH 6 0
BBX 6 13 0 -2
BITMAP
00
00
30
08
30
10
68
14
18
28
10
00
00
ENDCHAR

STARTCHAR fiveeighths
ENCODING 8541
SWIDTH 480 0
DWIDTH 6 0
BBX 6 13 0 -2
BITMAP
00
00
38
20
70
10
68
14
18
28
10
00
00
ENDCHAR

STARTCHAR seveneighths
ENCODING 8542
SWIDTH 480 0
DWIDTH 6 0
BBX 6 13 0 -2
BITMAP
00
00
70
10
20
40
48
14
18
28
10
00
00
ENDCHAR

STARTCHAR arrowleft
ENCODING 8592
SWIDTH 480 0
DWIDTH 6 0
BBX 6 13 0 -2
BITMAP
00
00
00
00
00
20
40
F8
40
20
00
00
00
ENDCHAR

STARTCHAR arrowup
ENCODING 8593
SWIDTH 480 0
DWIDTH 6 0
BBX 6 13 0 -2
BITMAP
00
00
10
38
54
10
10
20
20
20
20
00
00
ENDCHAR

STARTCHAR arrowright
ENCODING 8594
SWIDTH 480 0
DWIDTH 6 0
BBX 6 13 0 -2
BITMAP
00
00
00
00
00
20
10
F8
10
20
00
00
00
ENDCHAR

STARTCHAR arrowdown
ENCODING 8595
SWIDTH 480 0
DWIDTH 6 0
BBX 6 13 0 -2
BITMAP
00
00
10
10
10
10
20
20
A8
70
20
00
00
ENDCHAR

STARTCHAR minus
ENCODING 8722
SWIDTH 480 0
DWIDTH 6 0
BBX 6 13 0 -2
BITMAP
00
00
00
00
00
00
78
00
00
00
00
00
00
ENDCHAR

STARTCHAR notequal
ENCODING 8800
SWIDTH 480 0
DWIDTH 6 0
BBX 6 13 0 -2
BITMAP
00
00
00
00
00
04
7C
20
F8
80
00
00
00
ENDCHAR

STARTCHAR lessequal
ENCODING 8804
SWIDTH 480 0
DWIDTH 6 0
BBX 6 13 0 -2
BITMAP
00
00
00
0C
30
40
30
08
00
F8
00
00
00
ENDCHAR

STARTCHAR greaterequal
ENCODING 8805
SWIDTH 480 0
DWIDTH 6 0
BBX 6 13 0 -2
BITMAP
00
00
00
60
18
04
38
C0
00
F8
00
00
00
ENDCHAR

STARTCHAR uni2409
ENCODING 9225
SWIDTH 480 0
DWIDTH 6 0
BBX 6 13 0 -2
BITMAP
00
00
50
50
60
A0
A0
1C
08
10
10
00
00
ENDCHAR

STARTCHAR uni240A
ENCODING 9226
SWIDTH 480 0
DWIDTH 6 0
BBX 6 13 0 -2
BITMAP
00
00
40
40
80
E0
1C
10
18
20
20
00
00
ENDCHAR

STARTCHAR uni240B
ENCODING 9227
SWIDTH 480 0
DWIDTH 6 0
BBX 6 13 0 -2
BITMAP
00
00
50
50
60
60
40
1C
08
10
10
00
00
ENDCHAR

STARTCHAR uni240C
ENCODING 9228
SWIDTH 480 0
DWIDTH 6 0
BBX 6 13 0 -2
BITMAP
00
00
70
40
60
80
9C
10
18
20
20
00
00
ENDCHAR

STARTCHAR uni240D
ENCODING 9229
SWIDTH 480 0
DWIDTH 6 0
BBX 6 13 0 -2
BITMAP
00
00
30
40
80
60
18
14
18
28
28
00
00
ENDCHAR

STARTCHAR uni2424
ENCODING 9252
SWIDTH 480 0
DWIDTH 6 0
BBX 6 13 0 -2
BITMAP
00
00
48
48
B0
90
08
10
10
20
38
00
00
ENDCHAR

STARTCHAR musicalnote
ENCODING 9834
SWIDTH 480 0
DWIDTH 6 0
BBX 6 13 0 -2
BITMAP
00
00
10
18
14
10
10
10
70
F0
60
00
00
ENDCHAR

STARTCHAR ff
ENCODING 64256
SWIDTH 480 0
DWIDTH 6 0
BBX 6 13 0 -2
BITMAP
00
00
28
54
50
50
F8
50
A0
A0
A0
00
00
ENDCHAR

STARTCHAR fi
ENCODING 64257
SWIDTH 480 0
DWIDTH 6 0
BBX 6 13 0 -2
BITMAP
00
00
30
48
48
40
F8
48
90
90
90
00
00
ENDCHAR

STARTCHAR fl
ENCODING 64258
SWIDTH 480 0
DWIDTH 6 0
BBX 6 13 0 -2
BITMAP
00
00
38
48
48
48
F8
48
90
90
90
00
00
ENDCHAR

STARTCHAR ffi
ENCODING 64259
SWIDTH 480 0
DWIDTH 6 0
BBX 6 13 0 -2
BITMAP
00
00
50
A8
A0
A8
F8
A8
A8
A8
A8
00
00
ENDCHAR

STARTCHAR ffl
ENCODING 64260
SWIDTH 480 0
DWIDTH 6 0
BBX 6 13 0 -2
BITMAP
00
00
58
A8
A8
A8
F8
A8
A8
A8
A8
00
00
ENDCHAR

STARTCHAR uniFB05
ENCODING 64261
SWIDTH 480 0
DWIDTH 6 0
BBX 6 13 0 -2
BITMAP
00
00
30
50
50
50
58
50
A0
A0
90
00
00
ENDCHAR

STARTCHAR uniFB06
ENCODING 64262
SWIDTH 480 0
DWIDTH 6 0
BBX 6 13 0 -2
BITMAP
00
00
18
28
28
3C
48
50
30
30
C8
00
00
ENDCHAR

STARTCHAR uniFE20
ENCODING 65056
SWIDTH 480 0
DWIDTH 6 0
BBX 6 13 0 -2
BITMAP
00
3C
C0
00
00
00
00
00
00
00
00
00
00
ENDCHAR

STARTCHAR uniFE21
ENCODING 65057
SWIDTH 480 0
DWIDTH 6 0
BBX 6 13 0 -2
BITMAP
00
E0
18
00
00
00
00
00
00
00
00
00
00
ENDCHAR

STARTCHAR uniFE22
ENCODING 65058
SWIDTH 480 0
DWIDTH 6 0
BBX 6 13 0 -2
BITMAP
00
3C
40
00
00
00
00
00
00
00
00
00
00
ENDCHAR

STARTCHAR uniFE23
ENCODING 65059
SWIDTH 480 0
DWIDTH 6 0
BBX 6 13 0 -2
BITMAP
00
08
F0
00
00
00
00
00
00
00
00
00
00
ENDCHAR

STARTCHAR uniFFFD
ENCODING 65533
SWIDTH 480 0
DWIDTH 6 0
BBX 6 13 0 -2
BITMAP
00
00
38
6C
54
74
6C
D8
F8
D8
70
00
00
ENDCHAR
ENDFONT
